<?xml version="1.0" standalone="no"?>
<!DOCTYPE svg PUBLIC "-//W3C//DTD SVG 1.1//EN" "http://www.w3.org/Graphics/SVG/1.1/DTD/svg11.dtd" >
<svg xmlns="http://www.w3.org/2000/svg" xmlns:xlink="http://www.w3.org/1999/xlink" version="1.1">
<metadata>
Created by FontForge 20170731 at Thu Dec  9 14:03:09 2021
 By Aleksey,,,
Copyright (c) 2017 by Oliver Jeschke. All rights reserved.
</metadata>
<defs>
<font id="Sequel100Wide-55Wide" horiz-adv-x="1478" >
  <font-face 
    font-family="Sequel 100 Wide 55 Wide"
    font-weight="315"
    font-stretch="expanded"
    units-per-em="2048"
    panose-1="2 11 5 3 5 0 0 2 0 4"
    ascent="1638"
    descent="-410"
    x-height="1103"
    cap-height="1462"
    bbox="-451 -899 4669 2189"
    underline-thickness="102"
    underline-position="-307"
    unicode-range="U+000D-FB02"
  />
<missing-glyph horiz-adv-x="1417" 
d="M1331 2189v-3088h-1247v3088h1247zM244 2056v-2820h927v2820h-927zM598 801h-272q20 311 374 311q162 0 263.5 -72.5t101.5 -205.5q0 -43 -11.5 -76t-35 -56.5t-44.5 -38t-55 -32.5q-63 -32 -84.5 -52.5t-21.5 -52.5v-6h-242v33q0 76 32 118.5t118 94.5q34 20 49.5 39
t15.5 45q0 29 -22.5 47t-65.5 18q-44 0 -71.5 -29.5t-28.5 -84.5zM549 190v252h287v-252h-287z" />
    <glyph glyph-name="fi" unicode="fi" horiz-adv-x="1415" 
d="M729 1306q-40 0 -68 -3t-57 -12t-47 -25.5t-29 -44.5t-11 -68v-50h308v-198h-308v-905h-290v905h-194v198h194v77q0 189 113.5 267.5t338.5 78.5q78 0 170 -14v-216q-75 10 -120 10zM988 1276v215h298v-215h-298zM992 0v1103h290v-1103h-290z" />
    <glyph glyph-name="fl" unicode="fl" horiz-adv-x="1445" 
d="M729 1306q-40 0 -68 -3t-57 -12t-47 -25.5t-29 -44.5t-11 -68v-50h308v-198h-308v-905h-290v905h-194v198h194v77q0 189 113.5 267.5t338.5 78.5q78 0 170 -14v-216q-75 10 -120 10zM1023 0v1483h290v-1483h-290z" />
    <glyph glyph-name="f_f" unicode="ff" horiz-adv-x="1650" 
d="M1489 1306q-50 0 -83.5 -5t-65 -20t-47 -47t-15.5 -81v-50h307v-198h-307v-905h-290v905h-471v-905h-290v905h-194v198h194v77q0 189 113.5 267.5t338.5 78.5q78 0 170 -14v-216q-75 10 -120 10q-40 0 -68 -3t-57 -12t-47 -25.5t-29 -44.5t-11 -68v-50h471v77
q0 189 113 267.5t338 78.5q79 0 171 -14v-216q-75 10 -121 10z" />
    <glyph glyph-name="f_f_i" unicode="ffi" horiz-adv-x="2174" 
d="M988 1180q0 189 113 267.5t338 78.5q79 0 171 -14v-216q-75 10 -121 10q-50 0 -83.5 -5t-65 -20t-47 -47t-15.5 -81v-50h307v-198h-307v-905h-290v905h-471v-905h-290v905h-194v198h194v77q0 189 113.5 267.5t338.5 78.5q78 0 170 -14v-216q-75 10 -120 10q-40 0 -68 -3
t-57 -12t-47 -25.5t-29 -44.5t-11 -68v-50h471v77zM1748 1491h299v-215h-299v215zM1753 0v1103h290v-1103h-290z" />
    <glyph glyph-name=".notdef" horiz-adv-x="1417" 
d="M1331 2189v-3088h-1247v3088h1247zM244 2056v-2820h927v2820h-927zM598 801h-272q20 311 374 311q162 0 263.5 -72.5t101.5 -205.5q0 -43 -11.5 -76t-35 -56.5t-44.5 -38t-55 -32.5q-63 -32 -84.5 -52.5t-21.5 -52.5v-6h-242v33q0 76 32 118.5t118 94.5q34 20 49.5 39
t15.5 45q0 29 -22.5 47t-65.5 18q-44 0 -71.5 -29.5t-28.5 -84.5zM549 190v252h287v-252h-287z" />
    <glyph glyph-name=".null" horiz-adv-x="0" 
 />
    <glyph glyph-name="nonmarkingreturn" horiz-adv-x="682" 
 />
    <glyph glyph-name="CR" unicode="&#xd;" horiz-adv-x="294" 
 />
    <glyph glyph-name="space" unicode=" " horiz-adv-x="688" 
 />
    <glyph glyph-name="exclam" unicode="!" horiz-adv-x="649" 
d="M433 453h-217l-45 655v354h308v-354zM158 0v303h334v-303h-334z" />
    <glyph glyph-name="quotedbl" unicode="&#x22;" horiz-adv-x="868" 
d="M333 831h-248v631h248v-631zM784 831h-248l2 631h246v-631z" />
    <glyph glyph-name="numbersign" unicode="#" horiz-adv-x="1382" 
d="M1293 863h-223l-63 -295h229l-43 -173h-223l-85 -395h-203l85 395h-292l-85 -395h-202l86 395h-226l39 173h223l63 295h-227l38 176h226l86 396h202l-85 -396h293l85 396h201l-85 -396h226zM804 568l63 295h-292l-64 -295h293z" />
    <glyph glyph-name="dollar" unicode="$" horiz-adv-x="1589" 
d="M1515 428q0 -96 -32.5 -171t-91.5 -126t-146 -84.5t-190.5 -50t-230.5 -18.5v-220h-120v221q-118 4 -213.5 21.5t-180 55t-142 94t-91 142t-35.5 195.5h310q4 -75 31 -129t76 -85.5t108 -48t137 -21.5v423l-211 27q-73 9 -131.5 25.5t-110.5 46.5t-87 71t-55 100.5
t-20 134.5q0 86 30 155t83.5 117.5t130.5 81.5t169 50t202 20v169h120v-169q110 -4 202.5 -20.5t174.5 -51.5t139 -86.5t91 -128.5t36 -174h-309q-7 121 -95 176t-239 63v-367l284 -35q92 -11 161.5 -36t127 -70t88 -120t30.5 -177zM606 892l98 -12v354q-142 -7 -220.5 -53
t-78.5 -132q0 -76 50 -110t151 -47zM824 201q175 5 272.5 58.5t96.5 149.5q-1 91 -58.5 131t-167.5 53l-143 18v-410z" />
    <glyph glyph-name="percent" unicode="%" horiz-adv-x="2170" 
d="M492 1462q205 0 312.5 -106t107.5 -307t-107.5 -307t-312.5 -106t-312.5 106t-107.5 307t107.5 307t312.5 106zM1412 1435h223l-876 -1435h-223zM492 811q198 0 198 238q0 237 -198 237q-197 0 -197 -237q0 -238 197 -238zM1678 798q205 0 312.5 -106t107.5 -307
t-107.5 -307.5t-312.5 -106.5t-312 106.5t-107 307.5t107 307t312 106zM1678 147q198 0 198 238q0 237 -198 237q-197 0 -197 -237q0 -238 197 -238z" />
    <glyph glyph-name="ampersand" unicode="&#x26;" horiz-adv-x="1775" 
d="M1757 0h-373l-133 122q-204 -147 -521 -147q-192 0 -334 44t-226.5 141.5t-84.5 239.5q0 145 70 238t213 148l108 42l-21 20q-91 84 -133.5 152.5t-42.5 154.5q0 155 136 247.5t380 92.5q247 0 382.5 -92.5t135.5 -247.5q0 -111 -67.5 -182t-188.5 -123l-158 -68
l317 -289q47 118 47 282h275q0 -282 -116 -469zM700 964l37 -34l136 52q138 54 138 156q0 68 -51 112.5t-165 44.5q-113 0 -164 -44.5t-51 -112.5q0 -40 29.5 -79.5t90.5 -94.5zM730 190q205 0 336 100l-420 383l-76 -32q-79 -33 -123.5 -94t-44.5 -139q0 -102 85 -160
t243 -58z" />
    <glyph glyph-name="quotesingle" unicode="'" horiz-adv-x="417" 
d="M333 831h-248v631h248v-631z" />
    <glyph glyph-name="parenleft" unicode="(" horiz-adv-x="808" 
d="M365 578q0 -150 29 -290t72.5 -240.5t98.5 -185.5t101.5 -135t87.5 -79h-260q-37 28 -74 61.5t-91 92t-99 134t-86 169t-64.5 216.5t-23.5 257q0 116 18.5 224.5t47.5 191.5t70 159.5t80 130t84 101.5t76 74.5t62 49.5h260q-41 -29 -87.5 -79t-101.5 -135.5t-98.5 -186
t-72.5 -240.5t-29 -290z" />
    <glyph glyph-name="parenright" unicode=")" horiz-adv-x="808" 
d="M445 578q0 150 -29 290t-72.5 240.5t-98.5 186t-101.5 135.5t-87.5 79h260q31 -23 62 -49.5t76 -74.5t84 -101.5t80 -130t70 -159.5t47.5 -191.5t18.5 -224.5q0 -134 -23.5 -257t-64.5 -216.5t-86 -169t-99 -134t-91 -92t-74 -61.5h-260q41 29 87.5 79t101.5 135
t98.5 185.5t72.5 240.5t29 290z" />
    <glyph glyph-name="asterisk" unicode="*" horiz-adv-x="993" 
d="M922 1192l-267 -161l267 -161l-112 -155l-218 155l6 -270h-202l5 270l-217 -155l-112 155l266 161l-266 161l112 154l217 -154l-5 270h202l-6 -270l218 154z" />
    <glyph glyph-name="plus" unicode="+" horiz-adv-x="1404" 
d="M1243 779v-222h-425v-430h-232v430h-425v222h425v429h232v-429h425z" />
    <glyph glyph-name="comma" unicode="," horiz-adv-x="645" 
d="M491 308v-241q0 -235 -79 -336.5t-257 -103.5v125q80 2 115.5 58.5t35.5 189.5h-153v308h338z" />
    <glyph glyph-name="hyphen" unicode="-" horiz-adv-x="813" 
d="M735 473h-657v229h657v-229z" />
    <glyph glyph-name="period" unicode="." horiz-adv-x="645" 
d="M153 0v308h338v-308h-338z" />
    <glyph glyph-name="slash" unicode="/" horiz-adv-x="894" 
d="M587 1462h253l-568 -1462h-253z" />
    <glyph glyph-name="zero" unicode="0" horiz-adv-x="1712" 
d="M856 1461q376 0 573 -194.5t197 -554.5t-197 -554.5t-573 -194.5q-377 0 -574 194.5t-197 554.5t197 554.5t574 194.5zM856 196q234 0 351.5 131.5t117.5 384.5t-117.5 384.5t-351.5 131.5t-351.5 -131.5t-117.5 -384.5t117.5 -384.5t351.5 -131.5z" />
    <glyph glyph-name="one" unicode="1" horiz-adv-x="905" 
d="M752 1424v-1424h-293v994h-398v210h106q154 0 228.5 52t105.5 168h251z" />
    <glyph glyph-name="two" unicode="2" horiz-adv-x="1552" 
d="M637 412q-93 -38 -154 -87t-76 -94h1046v-231h-1388v46q0 71 15.5 134.5t40 112t63 93t76.5 76t90 63.5t93 52t95 44l335 153q63 28 103.5 50t78.5 52.5t56.5 66.5t18.5 80q0 207 -340 207q-74 0 -138.5 -14.5t-124.5 -47t-96.5 -95t-40.5 -149.5h-316q4 117 43 209.5
t103.5 153.5t155 100.5t191.5 56.5t219 17q119 0 215.5 -12.5t180.5 -43.5t141 -79.5t89.5 -123.5t32.5 -172q0 -57 -12.5 -107t-32.5 -88t-53.5 -72.5t-66 -59t-80 -49.5t-85.5 -41t-91 -37z" />
    <glyph glyph-name="three" unicode="3" horiz-adv-x="1558" 
d="M1224 742q260 -55 260 -343q0 -237 -172.5 -336.5t-546.5 -99.5q-169 0 -296.5 27.5t-222 87t-145 158t-55.5 235.5h317q9 -149 111 -213.5t291 -64.5q94 0 164.5 10.5t125.5 33.5t83 65t28 101q0 120 -81.5 171t-263.5 51h-223v215h243q152 0 220 48.5t68 155.5
q0 52 -29 89.5t-81.5 59t-115 31t-138.5 9.5q-75 0 -136 -12.5t-111 -40t-80.5 -75t-36.5 -112.5h-311q8 124 62.5 215.5t146.5 146t208 80.5t258 26q126 0 228 -13.5t186 -43.5t140.5 -76.5t87.5 -115.5t31 -158q0 -121 -57 -200.5t-157 -102.5v-9z" />
    <glyph glyph-name="four" unicode="4" horiz-adv-x="1570" 
d="M985 336h-942v229l879 859h344v-865h243v-223h-243v-336h-281v336zM985 559v601h-9l-606 -592v-9h615z" />
    <glyph glyph-name="five" unicode="5" horiz-adv-x="1538" 
d="M1354 1424v-226h-943l-16 -310h9q156 107 395 107q662 0 662 -513q0 -267 -176.5 -393t-516.5 -126q-330 0 -506 114.5t-185 337.5h324q24 -222 367 -222q185 0 282.5 67t97.5 221q0 153 -96 219t-278 66q-95 0 -172.5 -19.5t-114.5 -39.5t-83 -53h-295l42 770h1203z" />
    <glyph glyph-name="six" unicode="6" horiz-adv-x="1603" 
d="M867 933q321 0 491.5 -122.5t170.5 -354.5q0 -238 -178 -365.5t-529 -127.5q-378 0 -557.5 177.5t-179.5 569.5q0 751 739 751q144 0 259 -26t188 -67.5t123.5 -98t73 -112.5t28.5 -116h-314q-13 85 -103.5 139.5t-229.5 54.5q-79 0 -142.5 -11.5t-121 -42t-97.5 -79
t-65 -125.5t-30 -179h9q170 135 465 135zM821 709q-194 0 -295.5 -67t-101.5 -189q0 -128 103 -196t294 -68q188 0 291.5 68t103.5 194q0 123 -102 190.5t-293 67.5z" />
    <glyph glyph-name="seven" unicode="7" horiz-adv-x="1472" 
d="M33 1424h1381v-128q0 -94 -51 -187q-40 -75 -103.5 -161.5t-122 -155.5t-123 -159.5t-113.5 -178.5t-85.5 -206.5t-46.5 -247.5h-347q10 127 42 242.5t78.5 208t101 174t117.5 155t119 136t114.5 133t95.5 129.5v9h-1057v237z" />
    <glyph glyph-name="eight" unicode="8" horiz-adv-x="1609" 
d="M805 1461q352 0 526 -97t174 -310q0 -113 -63.5 -191t-176.5 -112v-9q260 -55 260 -350q0 -227 -175.5 -328t-544.5 -101t-544.5 101t-175.5 328q0 295 260 350v9q-113 34 -176 112t-63 191q0 213 173.5 310t525.5 97zM805 1233q-189 0 -289.5 -45.5t-100.5 -149.5
q0 -196 390 -196q391 0 391 196q0 104 -100.5 149.5t-290.5 45.5zM805 190q210 0 306 49t96 169t-97 169.5t-305 49.5t-305 -49.5t-97 -169.5t96 -169t306 -49z" />
    <glyph glyph-name="nine" unicode="9" horiz-adv-x="1581" 
d="M713 490q-321 0 -491 123t-170 355q0 239 178 366t528 127q378 0 557.5 -177.5t179.5 -569.5q0 -751 -739 -751q-144 0 -259 26t-188 67t-123 98t-72.5 112.5t-28.5 115.5h313q13 -85 103.5 -139t229.5 -54q79 0 142.5 11.5t121 42t97.5 79t65 125.5t30 179h-9
q-171 -136 -465 -136zM760 714q194 0 295.5 67.5t101.5 189.5q0 128 -103 196t-294 68q-188 0 -291.5 -68t-103.5 -194q0 -123 102 -191t293 -68z" />
    <glyph glyph-name="colon" unicode=":" horiz-adv-x="641" 
d="M153 731v304h334v-304h-334zM153 0v303h334v-303h-334z" />
    <glyph glyph-name="semicolon" unicode=";" horiz-adv-x="641" 
d="M153 731v304h334v-304h-334zM487 303v-236q0 -235 -78.5 -336.5t-253.5 -103.5v125q78 2 112.5 59t34.5 189h-149v303h334z" />
    <glyph glyph-name="less" unicode="&#x3c;" horiz-adv-x="1400" 
d="M161 759l1078 455v-239l-746 -309v-9l746 -309v-240l-1078 455v196z" />
    <glyph glyph-name="equal" unicode="=" horiz-adv-x="1404" 
d="M1243 993v-222h-1082v222h1082zM1243 557v-222h-1082v222h1082z" />
    <glyph glyph-name="greater" unicode="&#x3e;" horiz-adv-x="1404" 
d="M1243 759v-196l-1082 -455v240l748 309v9l-748 309v239z" />
    <glyph glyph-name="question" unicode="?" horiz-adv-x="1374" 
d="M360 989h-302q2 108 36 193.5t92.5 143t141 95.5t177.5 55t206 17q280 0 443.5 -103t163.5 -296q0 -71 -16.5 -125.5t-51 -95t-72 -68.5t-93.5 -59l-102 -58q-84 -47 -111.5 -95t-27.5 -126v-14h-283v51q0 87 24.5 149t67.5 104.5t120 89.5l103 62q67 41 97.5 81
t30.5 104q0 86 -80.5 130.5t-211.5 44.5q-68 0 -125.5 -13t-109.5 -43t-83 -87t-34 -137zM535 0v303h334v-303h-334z" />
    <glyph glyph-name="at" unicode="@" horiz-adv-x="2150" 
d="M1338 1006h228l-129 -665q-12 -46 -0.5 -73t55.5 -27q48 0 96 15t95.5 50t83 86t58 129.5t22.5 173.5q0 141 -50 258.5t-144.5 203t-237.5 133t-321 47.5q-164 0 -309.5 -62.5t-251.5 -172t-168 -266t-62 -335.5q0 -178 58.5 -317.5t162 -226.5t237.5 -132t291 -45
q165 0 294.5 40t253.5 121h264q-121 -156 -340 -249.5t-480 -93.5q-161 0 -305.5 37.5t-264 113.5t-206.5 184.5t-135 257t-48 323.5q0 141 36 273t100.5 243t157.5 203t205 156t245 99.5t274 35.5q215 0 397 -63.5t305 -172t191.5 -252.5t68.5 -304q0 -136 -36.5 -247.5
t-96.5 -184.5t-140 -123t-164.5 -72t-172.5 -22q-97 0 -152 36t-60 103h-9q-109 -139 -318 -139q-169 0 -267 99.5t-98 271.5q0 118 41.5 228t119.5 196q136 149 342 149q96 0 162 -35.5t93 -89.5h9zM1086 853q-118 0 -202 -101q-50 -60 -76 -136.5t-26 -152.5
q0 -99 49.5 -152.5t139.5 -53.5q117 0 202 102q51 60 76.5 136t25.5 152q0 99 -49.5 152.5t-139.5 53.5z" />
    <glyph glyph-name="A" unicode="A" horiz-adv-x="1798" 
d="M1454 0l-145 310h-827l-145 -310h-318l701 1462h358l701 -1462h-325zM593 550h605l-298 640h-9z" />
    <glyph glyph-name="B" unicode="B" horiz-adv-x="1734" 
d="M1428 783q101 -34 160.5 -118.5t59.5 -246.5q0 -212 -120.5 -315t-378.5 -103h-996v1462h976q240 0 353.5 -95t113.5 -280q0 -237 -168 -295v-9zM1071 868q106 0 156 43t50 136q0 94 -50 137t-156 43h-623v-359h623zM1089 235q124 0 181.5 49.5t57.5 157.5t-57.5 157.5
t-181.5 49.5h-641v-414h641z" />
    <glyph glyph-name="C" unicode="C" horiz-adv-x="1814" 
d="M1385 924q-11 141 -129.5 234t-333.5 93q-110 0 -203 -32.5t-163 -96t-109.5 -163.5t-39.5 -228t39.5 -228t109.5 -163t163 -95.5t203 -32.5q220 0 338 97.5t126 259.5h344q-5 -187 -106 -325t-281.5 -210.5t-420.5 -72.5q-177 0 -327.5 48t-265 141t-179.5 242t-65 339
t65 338.5t179.5 242t265 141.5t327.5 48q359 0 574.5 -157.5t229.5 -419.5h-341z" />
    <glyph glyph-name="D" unicode="D" horiz-adv-x="1783" 
d="M922 1462q777 0 777 -731q0 -192 -52.5 -333t-154 -228t-243 -128.5t-327.5 -41.5h-769v1462h769zM864 1217h-416v-971h416q513 0 513 485q0 486 -513 486z" />
    <glyph glyph-name="E" unicode="E" horiz-adv-x="1605" 
d="M448 1216v-338h988v-236h-988v-396h1047v-246h-1342v1462h1316v-246h-1021z" />
    <glyph glyph-name="F" unicode="F" horiz-adv-x="1564" 
d="M1470 1212h-1022v-376h987v-239h-987v-597h-295v1462h1317v-250z" />
    <glyph glyph-name="G" unicode="G" horiz-adv-x="1902" 
d="M1760 786v-786h-236v208q-186 -247 -562 -247q-192 0 -351 48t-277 141.5t-183.5 241.5t-65.5 339q0 153 42 279t118 216.5t183 152.5t237 92t281 30q189 0 338 -40t245.5 -112t151.5 -166t68 -207h-339q-9 40 -27 76t-53.5 73.5t-85 64.5t-126.5 44t-172 17
q-119 0 -217 -32.5t-170 -96t-112 -163.5t-40 -228q0 -130 40 -230t114 -163.5t175 -96t226 -32.5q212 0 325 96t134 255h-436v226h775z" />
    <glyph glyph-name="H" unicode="H" horiz-adv-x="1818" 
d="M1370 1462h295v-1462h-295v626l-922 -1v-625h-295v1462h295v-586h922v586z" />
    <glyph glyph-name="I" unicode="I" horiz-adv-x="602" 
d="M448 0h-295v1462h295v-1462z" />
    <glyph glyph-name="J" unicode="J" horiz-adv-x="1615" 
d="M1464 1462v-887q0 -162 -51.5 -282t-147 -191.5t-222 -106t-285.5 -34.5q-160 0 -285.5 34.5t-219.5 106.5t-144.5 191.5t-50.5 281.5v130h295v-132q0 -185 108 -273t297 -88q191 0 301 88t110 273v889h295z" />
    <glyph glyph-name="K" unicode="K" horiz-adv-x="1740" 
d="M1041 956l677 -956h-364l-535 764l-371 -322v-442h-295v1462h295v-696l783 696h391z" />
    <glyph glyph-name="L" unicode="L" horiz-adv-x="1566" 
d="M1492 0h-1339v1462h295v-1212h1044v-250z" />
    <glyph glyph-name="M" unicode="M" horiz-adv-x="2125" 
d="M1972 1462v-1462h-295v1170h-9l-482 -1170h-250l-491 1188h-9v-1188h-283v1462h479l425 -1065h9l421 1065h485z" />
    <glyph glyph-name="N" unicode="N" horiz-adv-x="1816" 
d="M1381 1462h282v-1462h-336l-884 1086h-9v-1086h-281v1462h347l872 -1073h9v1073z" />
    <glyph glyph-name="O" unicode="O" horiz-adv-x="1896" 
d="M948 1501q187 0 343 -48t273 -141.5t182.5 -242t65.5 -338.5t-65.5 -338.5t-182.5 -242t-273 -141.5t-343 -48t-343 48t-273 141.5t-182 242t-65 338.5t65.5 338.5t182 242t272.5 141.5t343 48zM948 212q120 0 218.5 32.5t171 95.5t112.5 163t40 228q0 170 -70.5 289
t-190.5 175t-281 56q-120 0 -218 -32.5t-170.5 -96t-112.5 -163.5t-40 -228q0 -170 70 -288.5t190 -174.5t281 -56z" />
    <glyph glyph-name="P" unicode="P" horiz-adv-x="1695" 
d="M1123 1462q269 0 393 -107t124 -340q0 -234 -124 -342t-393 -108h-675v-565h-295v1462h970zM1076 798q125 0 183.5 50.5t58.5 159.5t-58.5 159.5t-183.5 50.5h-628v-420h628z" />
    <glyph glyph-name="Q" unicode="Q" horiz-adv-x="1896" 
d="M1812 731q0 -227 -90.5 -389.5t-254.5 -257.5l114 -193l-224 -92l-115 196q-135 -34 -294 -34q-187 0 -343 48t-273 141.5t-182 242t-65 338.5t65.5 338.5t182 242t272.5 141.5t343 48t343 -48t273 -141.5t182.5 -242t65.5 -338.5zM1323 327q167 137 167 404
q0 170 -70.5 289t-190.5 175t-281 56q-120 0 -218 -32.5t-170.5 -96t-112.5 -163.5t-40 -228q0 -170 70 -288.5t190 -174.5t281 -56q82 0 156 15l-135 229l223 92z" />
    <glyph glyph-name="R" unicode="R" horiz-adv-x="1759" 
d="M1330 602l372 -602h-339l-347 573h-568v-573h-295v1462h1002q269 0 392.5 -105.5t123.5 -335.5q0 -341 -341 -409v-10zM1119 819q117 0 171.5 47t54.5 148t-54.5 148t-171.5 47h-671v-390h671z" />
    <glyph glyph-name="S" unicode="S" horiz-adv-x="1652" 
d="M1205 1019q-3 72 -36.5 123t-93 78t-129.5 38.5t-160 11.5q-172 0 -268 -47.5t-96 -145.5q0 -80 52.5 -115.5t157.5 -48.5l521 -62q96 -12 168.5 -37.5t132.5 -73t92 -125.5t32 -185q0 -104 -36.5 -184t-102.5 -133.5t-163 -87.5t-212 -49t-256 -15q-136 0 -245.5 15
t-207.5 52.5t-164.5 97t-106 152t-42.5 214.5h324q3 -70 28 -123t64 -86t97 -53.5t120.5 -28t140.5 -7.5q200 0 313 55t112 161q-1 50 -17.5 85t-50 56t-72.5 32.5t-95 18.5l-493 63q-96 12 -169 37.5t-132 70t-90 116.5t-31 169q0 117 52 203.5t147.5 138.5t220 76.5
t280.5 24.5q125 0 229.5 -14.5t199 -49.5t160.5 -89t106 -137.5t43 -191.5h-324z" />
    <glyph glyph-name="T" unicode="T" horiz-adv-x="1605" 
d="M1553 1462v-252h-603v-1210h-294v1210h-603v252h1500z" />
    <glyph glyph-name="U" unicode="U" horiz-adv-x="1810" 
d="M1363 1462h295v-887q0 -162 -54 -281.5t-155.5 -191.5t-236 -106.5t-306.5 -34.5t-306.5 34.5t-236.5 106.5t-156 191.5t-54 281.5v887h295v-881q0 -192 122 -282.5t336 -90.5t335.5 90.5t121.5 282.5v881z" />
    <glyph glyph-name="V" unicode="V" horiz-adv-x="1691" 
d="M347 1462l498 -1121h9l498 1121h331l-681 -1462h-311l-682 1462h338z" />
    <glyph glyph-name="W" unicode="W" horiz-adv-x="2299" 
d="M1819 0h-350l-314 1086h-9l-318 -1086h-350l-457 1462h321l314 -1098h10l321 1098h331l322 -1098h9l313 1098h316z" />
    <glyph glyph-name="X" unicode="X" horiz-adv-x="1716" 
d="M1047 771l656 -771h-385l-462 559l-462 -559h-380l655 771l-592 691h374l409 -492l416 492h364z" />
    <glyph glyph-name="Y" unicode="Y" horiz-adv-x="1677" 
d="M1669 1462l-682 -923v-539h-296v535l-683 927h355l476 -667l484 667h346z" />
    <glyph glyph-name="Z" unicode="Z" horiz-adv-x="1630" 
d="M1517 1223l-977 -967h981v-256h-1435v240l976 966h-919v256h1374v-239z" />
    <glyph glyph-name="bracketleft" unicode="[" horiz-adv-x="790" 
d="M440 1296v-1435h277v-213h-564v1861h564v-213h-277z" />
    <glyph glyph-name="backslash" unicode="\" horiz-adv-x="931" 
d="M308 1462l568 -1462h-252l-568 1462h252z" />
    <glyph glyph-name="bracketright" unicode="]" horiz-adv-x="790" 
d="M351 1296h-277v213h564v-1861h-564v213h277v1435z" />
    <glyph glyph-name="asciicircum" unicode="^" horiz-adv-x="1095" 
d="M657 1435l366 -712h-222l-249 503h-9l-248 -503h-223l367 712h218z" />
    <glyph glyph-name="underscore" unicode="_" horiz-adv-x="1527" 
d="M1532 -215v-123h-1536v123h1536z" />
    <glyph glyph-name="grave" unicode="`" horiz-adv-x="899" 
d="M153 1531h410l183 -314h-253z" />
    <glyph glyph-name="a" unicode="a" horiz-adv-x="1409" 
d="M1279 178q0 -129 31 -166v-12h-284q-31 31 -31 128v33q-155 -198 -491 -198q-89 0 -167 21.5t-140 63.5t-98 110.5t-36 156.5q0 86 26.5 150.5t74 104t105.5 61t129 29.5l444 46q72 8 104.5 31.5t32.5 72.5q0 117 -262 117q-125 0 -201.5 -38.5t-82.5 -114.5h-303
q3 98 50.5 170.5t130 114t183 61.5t220.5 20q130 0 229.5 -16.5t177 -54t118 -102.5t40.5 -157v-632zM989 486v61q-26 -18 -95 -28l-362 -47q-82 -11 -125.5 -45.5t-43.5 -107.5q0 -154 215 -154q53 0 106.5 9.5t109.5 33t98.5 59t69.5 92t27 127.5z" />
    <glyph glyph-name="b" unicode="b" horiz-adv-x="1517" 
d="M431 955q65 81 172 128t243 47q270 0 432.5 -154.5t162.5 -429.5t-162.5 -429t-432.5 -154q-138 0 -247 49.5t-174 137.5h-9v-150h-284v1483h290v-528h9zM779 192q174 0 268 89.5t94 264.5t-94 265t-268 90q-170 0 -267.5 -96.5t-97.5 -258.5q0 -161 97.5 -257.5
t267.5 -96.5z" />
    <glyph glyph-name="c" unicode="c" horiz-adv-x="1466" 
d="M734 192q301 0 338 223h319q-13 -99 -56 -178.5t-119.5 -142t-199 -97t-282.5 -34.5q-311 0 -485 155t-174 432q0 280 174 435t485 155q129 0 233 -22.5t177 -62t125 -96.5t80 -122.5t39 -142.5h-318q-38 217 -336 217q-168 0 -263.5 -93t-95.5 -268q0 -173 95.5 -265.5
t263.5 -92.5z" />
    <glyph glyph-name="d" unicode="d" horiz-adv-x="1517" 
d="M1085 955h9v528h290v-1483h-283v150h-9q-65 -88 -174.5 -137.5t-247.5 -49.5q-270 0 -432.5 154t-162.5 429t162.5 429.5t432.5 154.5q136 0 243 -47t172 -128zM738 192q170 0 267 96t97 258t-97 258.5t-267 96.5q-174 0 -268.5 -90t-94.5 -265t94.5 -264.5t268.5 -89.5z
" />
    <glyph glyph-name="e" unicode="e" horiz-adv-x="1466" 
d="M1391 551q0 -21 -5 -73h-1011q15 -151 109.5 -225.5t258.5 -74.5q79 0 139.5 16t96 42t54.5 53t26 56h318q-8 -59 -31.5 -111.5t-72.5 -103t-118.5 -87t-175 -58.5t-236.5 -22q-317 0 -492.5 155t-175.5 433q0 277 174 433t484 156t484 -156t174 -433zM733 925
q-140 0 -230 -60.5t-118 -180.5h696q-28 120 -118 180.5t-230 60.5z" />
    <glyph glyph-name="f" unicode="f" horiz-adv-x="890" 
d="M729 1306q-40 0 -68 -3t-57 -12t-47 -25.5t-29 -44.5t-11 -68v-50h308v-198h-308v-905h-290v905h-194v198h194v77q0 189 113.5 267.5t338.5 78.5q78 0 170 -14v-216q-75 10 -120 10z" />
    <glyph glyph-name="g" unicode="g" horiz-adv-x="1497" 
d="M1082 1103h283v-1054q0 -91 -14.5 -157t-55 -125.5t-109.5 -96.5t-180.5 -58.5t-265.5 -21.5q-106 0 -194.5 11.5t-151.5 31.5t-111.5 49.5t-79 61.5t-50 72t-27.5 77t-10 79h314q3 -29 17 -55t45.5 -53t95 -43t152.5 -16q102 0 169.5 16.5t103 50.5t49 75.5t13.5 101.5
v187h-9q-66 -75 -172.5 -121t-237.5 -46q-263 0 -422 140t-159 390t159 390.5t422 140.5q135 0 242.5 -46.5t173.5 -128.5h10v148zM725 296q166 0 260.5 82t94.5 221t-94.5 221.5t-260.5 82.5q-167 0 -258.5 -77.5t-91.5 -226.5t91.5 -226t258.5 -77z" />
    <glyph glyph-name="h" unicode="h" 
d="M868 1130q104 0 189.5 -23.5t150.5 -70.5t101 -124.5t36 -179.5v-732h-290v634q0 137 -74 198.5t-218 61.5q-64 0 -122 -17.5t-108.5 -53.5t-80.5 -101t-30 -151v-571h-290v1483h290v-521h9q153 168 437 168z" />
    <glyph glyph-name="i" unicode="i" horiz-adv-x="555" 
d="M128 1276v215h298v-215h-298zM132 0v1103h290v-1103h-290z" />
    <glyph glyph-name="j" unicode="j" horiz-adv-x="555" 
d="M128 1276v215h298v-215h-298zM0 -168q69 0 100.5 24t31.5 91v1156h290v-1225q0 -161 -81 -224.5t-284 -63.5q-93 0 -173 12v239q50 -9 116 -9z" />
    <glyph glyph-name="k" unicode="k" horiz-adv-x="1347" 
d="M802 683l527 -683h-352l-380 505l-175 -152v-353h-290v1483h290v-821l497 441h364z" />
    <glyph glyph-name="l" unicode="l" horiz-adv-x="555" 
d="M132 0v1483h290v-1483h-290z" />
    <glyph glyph-name="m" unicode="m" horiz-adv-x="2287" 
d="M416 1103v-145h9q68 88 178.5 130t240.5 42q296 0 401 -176q74 91 195 133.5t266 42.5q95 0 174.5 -23t142 -69t97.5 -123t35 -178v-737h-290v658q0 236 -267 236q-56 0 -108 -16t-98.5 -48.5t-74.5 -92t-28 -137.5v-600h-290v658q0 236 -267 236q-44 0 -86.5 -9.5
t-83.5 -31.5t-71.5 -55t-49.5 -84t-19 -114v-600h-290v1103h284z" />
    <glyph glyph-name="n" unicode="n" 
d="M416 1103v-141h9q164 168 443 168q104 0 189.5 -23.5t150.5 -70.5t101 -124.5t36 -179.5v-732h-290v634q0 137 -74 198.5t-218 61.5q-64 0 -122 -17.5t-108.5 -53.5t-80.5 -101t-30 -151v-571h-290v1103h284z" />
    <glyph glyph-name="o" unicode="o" horiz-adv-x="1488" 
d="M744 1140q317 0 493 -155.5t176 -433.5t-176 -433t-493 -155t-493 155t-176 433t176 433.5t493 155.5zM744 192q176 0 272.5 92t96.5 267t-96.5 267.5t-272.5 92.5t-272.5 -92.5t-96.5 -267.5t96.5 -267t272.5 -92z" />
    <glyph glyph-name="p" unicode="p" horiz-adv-x="1517" 
d="M431 138h-9v-520h-290v1485h284v-160h9q65 88 174 137.5t247 49.5q270 0 432.5 -154.5t162.5 -429.5t-162.5 -429t-432.5 -154q-136 0 -243 47t-172 128zM779 901q-170 0 -267.5 -96.5t-97.5 -258.5q0 -161 97.5 -257.5t267.5 -96.5q174 0 268 89.5t94 264.5t-94 265
t-268 90z" />
    <glyph glyph-name="q" unicode="q" horiz-adv-x="1517" 
d="M1085 138q-65 -81 -172 -128t-243 -47q-270 0 -432.5 154t-162.5 429t162.5 429.5t432.5 154.5q138 0 247.5 -49.5t174.5 -137.5h9v160h283v-1485h-290v520h-9zM738 901q-174 0 -268.5 -90t-94.5 -265t94.5 -264.5t268.5 -89.5q170 0 267 96t97 258t-97 258.5t-267 96.5z
" />
    <glyph glyph-name="r" unicode="r" horiz-adv-x="1044" 
d="M132 1103h284v-146h9q157 174 444 174q74 0 122 -14v-284q-87 20 -166 20q-61 0 -115.5 -8.5t-108.5 -31t-92.5 -57.5t-62.5 -92.5t-24 -130.5v-533h-290v1103z" />
    <glyph glyph-name="s" unicode="s" horiz-adv-x="1376" 
d="M958 771q-11 162 -307 162q-131 0 -196 -31t-65 -85q0 -50 35 -74t120 -34l400 -47q83 -9 143 -28.5t110.5 -56.5t76.5 -100t26 -151q0 -100 -43.5 -171.5t-127 -113t-194 -60t-255.5 -18.5q-110 0 -199.5 11t-171.5 39t-137.5 73t-89.5 116.5t-37 165.5h304
q3 -56 29 -95t72 -60.5t103 -31t131 -9.5q151 0 228.5 36t77.5 102q0 57 -37 84t-126 39l-382 49q-82 11 -142.5 30t-111.5 54.5t-77.5 94t-26.5 139.5q0 89 42.5 155.5t120 106.5t178 59t223.5 19q100 0 186.5 -12t164 -39.5t132.5 -69.5t88 -105t35 -143h-300z" />
    <glyph glyph-name="t" unicode="t" horiz-adv-x="897" 
d="M648 224q100 0 168 13v-237q-92 -18 -210 -18q-214 0 -299.5 69.5t-85.5 240.5v613h-194v198h194v304h290v-304h308v-198h-308v-564q0 -64 33.5 -90.5t103.5 -26.5z" />
    <glyph glyph-name="u" unicode="u" 
d="M1062 0v140h-9q-163 -167 -444 -167q-104 0 -189.5 23.5t-150.5 70.5t-101 124.5t-36 179.5v732h290v-634q0 -137 74.5 -199t218.5 -62q64 0 121.5 17.5t108 54t80.5 101.5t30 151v571h290v-1103h-283z" />
    <glyph glyph-name="v" unicode="v" horiz-adv-x="1415" 
d="M1067 1103h323l-519 -1103h-327l-519 1103h323l353 -805h9z" />
    <glyph glyph-name="w" unicode="w" horiz-adv-x="2187" 
d="M2153 1103l-450 -1103h-311l-288 783h-9l-288 -783h-311l-461 1103h316l301 -784h9l286 777h304l289 -778h9l288 785h316z" />
    <glyph glyph-name="x" unicode="x" horiz-adv-x="1425" 
d="M901 580l491 -580h-369l-308 391l-314 -391h-367l493 580l-435 523h362l261 -339l257 339h360z" />
    <glyph glyph-name="y" unicode="y" horiz-adv-x="1415" 
d="M1390 1103l-560 -1190q-88 -186 -197.5 -254.5t-303.5 -68.5q-112 0 -199 9v246q115 -12 174 -12q72 0 120.5 23.5t77.5 86.5l36 80l-513 1080h323l353 -805h9l357 805h323z" />
    <glyph glyph-name="z" unicode="z" horiz-adv-x="1288" 
d="M1192 0h-1121v232l709 648h-662v223h1074v-230l-709 -652h709v-221z" />
    <glyph glyph-name="braceleft" unicode="{" horiz-adv-x="811" 
d="M529 833q0 -216 -190 -250v-9q190 -34 190 -251v-321q0 -75 23 -108t100 -33h87v-213h-191q-304 0 -304 261v359q0 111 -44 154t-128 43v226q84 0 128 43.5t44 154.5v360q0 260 304 260h191v-213h-87q-77 0 -100 -33t-23 -108v-322z" />
    <glyph glyph-name="bar" unicode="|" horiz-adv-x="579" 
d="M426 1634v-2098h-273v2098h273z" />
    <glyph glyph-name="braceright" unicode="}" horiz-adv-x="808" 
d="M282 833v322q0 75 -23 108t-100 33h-87v213h191q304 0 304 -260v-360q0 -111 44 -154.5t128 -43.5v-226q-84 0 -128 -43t-44 -154v-359q0 -261 -304 -261h-191v213h87q77 0 100 33t23 108v321q0 217 190 251v9q-190 34 -190 250z" />
    <glyph glyph-name="asciitilde" unicode="~" horiz-adv-x="1404" 
d="M987 674q71 0 132 40t124 110v-234q-116 -133 -256 -133q-105 0 -223 60l-148 74q-113 58 -199 58q-137 0 -256 -176v234q105 159 256 159q88 0 204 -58l148 -74q120 -60 218 -60z" />
    <glyph glyph-name="uni00A0" unicode="&#xa0;" horiz-adv-x="294" 
 />
    <glyph glyph-name="exclamdown" unicode="&#xa1;" horiz-adv-x="649" 
d="M158 1101h334v-303h-334v303zM433 648l46 -655v-354h-308v354l45 655h217z" />
    <glyph glyph-name="cent" unicode="&#xa2;" horiz-adv-x="1466" 
d="M1391 415q-13 -94 -52 -170.5t-109 -138.5t-180.5 -98.5t-254.5 -43.5v-213h-120v214q-284 15 -442 168.5t-158 416.5q0 266 157.5 419.5t442.5 168.5v170h120v-170q144 -6 254 -42.5t179 -97.5t108 -136t52 -168h-318q-36 193 -275 214v-714q242 22 277 221h319z
M375 550q0 -157 79 -248t221 -107v713q-142 -16 -221 -107.5t-79 -250.5z" />
    <glyph glyph-name="sterling" unicode="&#xa3;" horiz-adv-x="1546" 
d="M1142 207q90 0 162.5 16.5t142.5 71.5v-266q-94 -58 -265 -58q-124 0 -233.5 44.5t-240.5 124.5q-44 -83 -127 -126t-193 -43q-138 0 -215.5 63t-77.5 183t72.5 180t188.5 60q80 0 152 -33q-7 84 -65 168h-362v144h257q-73 82 -114 157.5t-41 161.5q0 108 45 188t127 127
t187 69.5t235 22.5q582 0 640 -468h-296q-18 138 -102.5 196.5t-228.5 58.5q-308 0 -308 -219q0 -26 8 -53.5t16.5 -47.5t30 -51t32.5 -45t40.5 -49.5t38.5 -47.5h469v-144h-378q48 -79 48 -176q0 -57 -6 -88q7 -3 46 -22t48.5 -23t43.5 -19t47.5 -19.5t42 -14.5t46.5 -13
t41.5 -6.5t45.5 -3.5zM385 125q45 0 77.5 32.5t43.5 100.5q-73 49 -124 49q-49 0 -76 -25.5t-27 -67.5q0 -41 27.5 -65t78.5 -24z" />
    <glyph glyph-name="currency" unicode="&#xa4;" horiz-adv-x="1384" 
d="M1233 754q0 -163 -95 -294l126 -124l-148 -133l-124 119q-134 -88 -300 -88q-164 0 -300 88l-123 -119l-148 133l126 123q-96 133 -96 295q0 161 96 294l-126 124l148 132l123 -119q136 88 300 88q166 0 300 -88l124 119l148 -132l-126 -125q95 -131 95 -293zM692 427
q132 0 225.5 96t93.5 231t-93.5 230.5t-225.5 95.5t-225.5 -95.5t-93.5 -230.5t93.5 -231t225.5 -96z" />
    <glyph glyph-name="yen" unicode="&#xa5;" horiz-adv-x="1642" 
d="M1635 1434l-431 -584h225v-144h-330l-96 -129h426v-144h-461v-433h-291v433h-474v144h435l-95 129h-340v144h234l-429 584h348l466 -654l475 654h338z" />
    <glyph glyph-name="brokenbar" unicode="&#xa6;" horiz-adv-x="579" 
d="M426 1634v-895h-273v895h273zM426 430v-894h-273v894h273z" />
    <glyph glyph-name="section" unicode="&#xa7;" horiz-adv-x="1540" 
d="M1536 453q0 -200 -181 -289q29 -63 29 -144q0 -112 -45 -191.5t-130.5 -125.5t-196 -67t-255.5 -21q-111 0 -200 13t-168.5 45.5t-133 84t-85 131.5t-33.5 186h288q3 -61 21.5 -106.5t48.5 -73t73.5 -44.5t90 -23.5t105.5 -6.5q150 0 234 46.5t83 133.5q-1 36 -12.5 62.5
t-35 43t-45 25.5t-55.5 19l-614 177q-57 16 -98.5 32t-85 43t-70.5 61t-44.5 84t-17.5 113q0 207 215 291q-37 61 -37 158q0 102 42.5 177.5t120.5 119.5t178 65t225 21q96 0 177.5 -12.5t156 -43t126.5 -77t84 -119t35 -165.5h-290q-3 62 -27 105.5t-66.5 66.5t-91.5 32.5
t-112 9.5q-121 0 -190.5 -41t-69.5 -122q0 -65 33 -95t92 -46l613 -169q52 -14 91.5 -29t84.5 -44t74.5 -66t49 -95t19.5 -130zM430 547l632 -177q97 -29 148 -60q48 45 48 115q0 35 -11.5 63t-26.5 44.5t-42 30.5t-45 20.5t-50 15.5l-588 167q-69 19 -124 49
q-95 -40 -95 -135q0 -56 41.5 -85t112.5 -48z" />
    <glyph glyph-name="dieresis" unicode="&#xa8;" horiz-adv-x="1118" 
d="M153 1276v215h290v-215h-290zM676 1276v215h289v-215h-289z" />
    <glyph glyph-name="copyright" unicode="&#xa9;" horiz-adv-x="1755" 
d="M878 -33q-161 0 -308 60.5t-253 163t-169 244t-63 296.5t63 296.5t169 244t253 163t308 60.5t308 -60.5t253 -163t168.5 -244t62.5 -296.5t-62.5 -296.5t-168.5 -244t-253 -163t-308 -60.5zM878 94q134 0 256.5 50.5t210.5 135.5t140 203t52 248t-52 248t-140 203
t-210.5 135.5t-256.5 50.5t-256.5 -50.5t-211 -135.5t-140.5 -203t-52 -248t52 -248t140.5 -203t211 -135.5t256.5 -50.5zM1293 616q-4 -67 -31.5 -125.5t-77.5 -105t-128.5 -73.5t-175.5 -27q-196 0 -314.5 116t-118.5 332q0 214 119 329.5t314 115.5q184 0 287.5 -86
t113.5 -207h-203q-23 133 -198 133q-105 0 -167.5 -70t-62.5 -215q0 -148 62.5 -218.5t167.5 -70.5q191 0 211 172h202z" />
    <glyph glyph-name="ordfeminine" unicode="&#xaa;" horiz-adv-x="974" 
d="M871 901q0 -78 19 -101v-6h-210q-19 19 -19 73v22q-93 -120 -304 -120q-115 0 -195.5 55t-80.5 161q0 190 212 211l276 29q43 5 61.5 17t18.5 39q0 63 -146 63q-66 0 -108.5 -21t-46.5 -62h-225q3 62 34 106.5t84.5 70t118 37t142.5 11.5q86 0 150 -9.5t115 -32
t77.5 -63.5t26.5 -100v-380zM658 1087v31q-12 -8 -62 -17l-199 -28q-46 -7 -70 -26t-24 -60q0 -82 118 -82q39 0 78 9.5t76 29.5t60 57t23 86zM57 210h859v-210h-859v210z" />
    <glyph glyph-name="guillemotleft" unicode="&#xab;" horiz-adv-x="1032" 
d="M90 720l383 317v-290l-228 -184v-8l228 -184v-291l-383 317v323zM559 720l384 317v-290l-228 -184v-8l228 -184v-291l-384 317v323z" />
    <glyph glyph-name="logicalnot" unicode="&#xac;" horiz-adv-x="1404" 
d="M1243 869v-554h-232v332h-850v222h1082z" />
    <glyph glyph-name="registered" unicode="&#xae;" horiz-adv-x="1755" 
d="M878 1495q161 0 308 -60.5t253 -163t168.5 -244t62.5 -296.5t-62.5 -296.5t-168.5 -244t-253 -163t-308 -60.5t-308 60.5t-253 163t-169 244t-63 296.5t63 296.5t169 244t253 163t308 60.5zM878 94q133 0 255 50.5t210.5 136t141 203.5t52.5 247t-52.5 247t-141 203.5
t-210.5 136t-255 50.5q-178 0 -330 -85.5t-241 -232.5t-89 -319t89 -319t241 -232.5t330 -85.5zM1263 887q0 -99 -47 -164.5t-138 -91.5l207 -328h-225l-189 309h-168v-309h-196v856h436q152 0 236 -73t84 -199zM703 1012v-254h203q76 0 116 34t40 95q0 58 -40.5 91.5
t-115.5 33.5h-203z" />
    <glyph glyph-name="macron" unicode="&#xaf;" horiz-adv-x="1118" 
d="M966 1271h-813v198h813v-198z" />
    <glyph glyph-name="degree" unicode="&#xb0;" horiz-adv-x="741" 
d="M371 834q-134 0 -224.5 87t-90.5 224t90.5 224.5t224.5 87.5t224.5 -87.5t90.5 -224.5t-90.5 -224t-224.5 -87zM371 969q77 0 122.5 49.5t45.5 126.5t-45.5 126.5t-122.5 49.5t-122.5 -49.5t-45.5 -126.5t45.5 -126.5t122.5 -49.5z" />
    <glyph glyph-name="plusminus" unicode="&#xb1;" horiz-adv-x="1404" 
d="M1243 854v-218h-425v-353h-232v353h-425v218h425v354h232v-354h425zM161 213h1082v-213h-1082v213z" />
    <glyph glyph-name="uni00B2" unicode="&#xb2;" horiz-adv-x="1054" 
d="M449 863q-57 -21 -95.5 -46.5t-49.5 -48.5h650v-158h-889v26q0 55 13 102.5t38.5 83.5t53.5 63.5t67.5 50.5t70 37.5t71.5 30.5l198 77q75 30 111.5 59t36.5 74q0 109 -196 109q-61 0 -108.5 -13t-84.5 -51.5t-41 -99.5h-223q12 320 450 320q99 0 174 -12.5t134 -41
t89.5 -80t30.5 -124.5q0 -48 -14.5 -87.5t-36.5 -66t-59.5 -50t-71.5 -38t-84 -32.5z" />
    <glyph glyph-name="uni00B3" unicode="&#xb3;" horiz-adv-x="1038" 
d="M803 1051q160 -28 160 -201q0 -143 -108 -203t-352 -60q-225 0 -337.5 71.5t-119.5 230.5h222q7 -78 66 -112t169 -34q113 0 173.5 24.5t60.5 86.5q0 65 -47 93t-152 28h-145v142h157q88 0 128.5 25.5t40.5 83.5q0 53 -59.5 77.5t-156.5 24.5q-199 0 -214 -130h-214
q17 281 428 281q216 0 324.5 -55.5t108.5 -186.5q0 -74 -35 -120.5t-98 -60.5v-5z" />
    <glyph glyph-name="acute" unicode="&#xb4;" horiz-adv-x="899" 
d="M746 1531l-340 -314h-253l183 314h410z" />
    <glyph glyph-name="paragraph" unicode="&#xb6;" horiz-adv-x="1437" 
d="M1285 1462v-1839h-223v1639h-200v-1639h-222v934h-31q-267 0 -402 116.5t-135 335.5t136.5 336t404.5 117h672z" />
    <glyph glyph-name="periodcentered" unicode="&#xb7;" horiz-adv-x="540" 
d="M271 448q-83 0 -141 58t-58 140t58 140.5t141 58.5t141 -58.5t58 -140.5t-58 -140t-141 -58z" />
    <glyph glyph-name="cedilla" unicode="&#xb8;" horiz-adv-x="913" 
d="M153 -448v144h9q128 -39 230 -39q56 0 86.5 15t30.5 55q0 69 -117 69q-31 0 -79 -5.5t-66 -11.5h-9v78l145 215h166l-110 -163q38 6 75 6q247 0 247 -188q0 -109 -91 -156t-264 -47q-149 0 -253 28z" />
    <glyph glyph-name="uni00B9" unicode="&#xb9;" horiz-adv-x="692" 
d="M540 1456v-846h-208v560h-271v145h73q104 0 155.5 34.5t74.5 106.5h176z" />
    <glyph glyph-name="ordmasculine" unicode="&#xba;" horiz-adv-x="972" 
d="M486 1486q208 0 319 -93.5t111 -264.5t-111 -265t-319 -94t-318.5 94t-110.5 265t110.5 264.5t318.5 93.5zM486 929q100 0 154 52t54 147q0 96 -54 147.5t-154 51.5t-153.5 -51.5t-53.5 -147.5q0 -95 53.5 -147t153.5 -52zM57 210h859v-210h-859v210z" />
    <glyph glyph-name="guillemotright" unicode="&#xbb;" horiz-adv-x="1030" 
d="M473 720v-323l-383 -317v291l228 184v8l-228 184v290zM942 720v-323l-383 -317v291l228 184v8l-228 184v290z" />
    <glyph glyph-name="questiondown" unicode="&#xbf;" horiz-adv-x="1372" 
d="M838 1101v-303h-334v303h334zM1013 112h302q-2 -108 -36 -193.5t-92.5 -143t-141 -95.5t-177.5 -55t-206 -17q-280 0 -443 103t-163 296q0 71 16.5 125.5t50.5 95t71.5 68.5t93.5 59l103 58q84 47 111 95t27 126l1 14h282v-51q0 -87 -24.5 -149t-67.5 -104.5t-120 -89.5
l-103 -62q-67 -41 -97 -81t-30 -104q0 -86 80 -130.5t211 -44.5q68 0 125.5 13t109.5 43t83 87t34 137z" />
    <glyph glyph-name="Agrave" unicode="&#xc0;" horiz-adv-x="1798" 
d="M1028 1582h-253l-339 314h410zM1454 0l-145 310h-827l-145 -310h-318l701 1462h358l701 -1462h-325zM593 550h605l-298 640h-9z" />
    <glyph glyph-name="Aacute" unicode="&#xc1;" horiz-adv-x="1798" 
d="M1367 1896l-340 -314h-253l183 314h410zM1454 0l-145 310h-827l-145 -310h-318l701 1462h358l701 -1462h-325zM593 550h605l-298 640h-9z" />
    <glyph glyph-name="Acircumflex" unicode="&#xc2;" horiz-adv-x="1798" 
d="M908 1753l-144 -171h-329l293 314h369l292 -314h-328l-144 171h-9zM1454 0l-145 310h-827l-145 -310h-318l701 1462h358l701 -1462h-325zM593 550h605l-298 640h-9z" />
    <glyph glyph-name="Atilde" unicode="&#xc3;" horiz-adv-x="1798" 
d="M720 1673q-34 0 -48 -21t-13 -77h-220q0 86 22.5 149.5t61 97.5t81 50t90.5 16q59 0 135.5 -30t143.5 -59.5t103 -29.5q34 0 48 21.5t13 75.5h220q0 -86 -22.5 -149.5t-61 -97.5t-81 -49.5t-90.5 -15.5q-59 0 -135.5 30t-143.5 59.5t-103 29.5zM1454 0l-145 310h-827
l-145 -310h-318l701 1462h358l701 -1462h-325zM593 550h605l-298 640h-9z" />
    <glyph glyph-name="Adieresis" unicode="&#xc4;" horiz-adv-x="1798" 
d="M783 1810v-215h-290v215h290zM1306 1810v-215h-290v215h290zM1454 0l-145 310h-827l-145 -310h-318l701 1462h358l701 -1462h-325zM593 550h605l-298 640h-9z" />
    <glyph glyph-name="Aring" unicode="&#xc5;" horiz-adv-x="1798" 
d="M901 1529q-132 0 -220 69t-88 183t88 182.5t220 68.5t220.5 -69t88.5 -182q0 -114 -88.5 -183t-220.5 -69zM901 1881q-49 0 -82.5 -27.5t-33.5 -72.5t33.5 -72.5t82.5 -27.5t83 27.5t34 72.5t-34 72.5t-83 27.5zM1454 0l-145 310h-827l-145 -310h-318l701 1462h358
l701 -1462h-325zM593 550h605l-298 640h-9z" />
    <glyph glyph-name="AE" unicode="&#xc6;" horiz-adv-x="2756" 
d="M1635 246h1012v-246h-1294v310h-796l-209 -310h-348l1008 1462h1613v-246h-986v-338h953v-236h-953v-396zM718 550h635v666h-185z" />
    <glyph glyph-name="Ccedilla" unicode="&#xc7;" horiz-adv-x="1814" 
d="M1730 569q-7 -264 -200.5 -425t-520.5 -181l-37 -54q38 6 76 6q247 0 247 -188q0 -109 -91 -156t-264 -47q-149 0 -253 28v144h9q128 -39 229 -39q118 0 118 70q0 69 -118 69q-31 0 -78.5 -5.5t-65.5 -11.5h-9v78l73 106q-163 10 -300 63t-240.5 146.5t-161.5 236.5
t-58 322q0 190 65 338.5t179.5 242t265 141.5t327.5 48q359 0 574.5 -157.5t229.5 -419.5h-341q-11 141 -129.5 234t-333.5 93q-110 0 -203 -32.5t-163 -96t-109.5 -163.5t-39.5 -228t39.5 -228t109.5 -163t163 -95.5t203 -32.5q220 0 338 97.5t126 259.5h344z" />
    <glyph glyph-name="Egrave" unicode="&#xc8;" horiz-adv-x="1605" 
d="M348 1896h410l182 -314h-253zM448 1216v-338h988v-236h-988v-396h1047v-246h-1342v1462h1316v-246h-1021z" />
    <glyph glyph-name="Eacute" unicode="&#xc9;" horiz-adv-x="1605" 
d="M1279 1896l-340 -314h-253l183 314h410zM448 1216v-338h988v-236h-988v-396h1047v-246h-1342v1462h1316v-246h-1021z" />
    <glyph glyph-name="Ecircumflex" unicode="&#xca;" horiz-adv-x="1605" 
d="M973 1582l-144 171h-9l-144 -171h-329l292 314h370l292 -314h-328zM448 1216v-338h988v-236h-988v-396h1047v-246h-1342v1462h1316v-246h-1021z" />
    <glyph glyph-name="Edieresis" unicode="&#xcb;" horiz-adv-x="1605" 
d="M405 1595v215h290v-215h-290zM928 1595v215h289v-215h-289zM448 1216v-338h988v-236h-988v-396h1047v-246h-1342v1462h1316v-246h-1021z" />
    <glyph glyph-name="Igrave" unicode="&#xcc;" horiz-adv-x="917" 
d="M153 1896h410l183 -314h-253zM764 0h-295v1462h295v-1462z" />
    <glyph glyph-name="Iacute" unicode="&#xcd;" horiz-adv-x="921" 
d="M768 1896l-340 -314h-252l182 314h410zM448 0h-295v1462h295v-1462z" />
    <glyph glyph-name="Icircumflex" unicode="&#xce;" horiz-adv-x="1259" 
d="M779 1582l-144 171h-9l-144 -171h-329l292 314h370l292 -314h-328zM765 0h-295v1462h295v-1462z" />
    <glyph glyph-name="Idieresis" unicode="&#xcf;" horiz-adv-x="1118" 
d="M153 1595v215h290v-215h-290zM676 1595v215h289v-215h-289zM707 0h-295v1462h295v-1462z" />
    <glyph glyph-name="Eth" unicode="&#xd0;" horiz-adv-x="1812" 
d="M951 1462q777 0 777 -731q0 -192 -52.5 -333t-154 -228t-243 -128.5t-327.5 -41.5h-769v626h-152v210h152v626h769zM892 246q514 0 514 485q0 486 -514 486h-415v-381h384v-210h-384v-380h415z" />
    <glyph glyph-name="Ntilde" unicode="&#xd1;" horiz-adv-x="1816" 
d="M1111 1554q-59 0 -135.5 30t-143 59.5t-102.5 29.5q-35 0 -49 -21t-13 -77h-219q0 86 22.5 149.5t60.5 97.5t80.5 50t90.5 16q59 0 135.5 -30t143.5 -59.5t103 -29.5q34 0 48 21.5t13 75.5h220q0 -86 -22.5 -149.5t-61 -97.5t-81 -49.5t-90.5 -15.5zM1381 1462h282v-1462
h-336l-884 1086h-9v-1086h-281v1462h347l872 -1073h9v1073z" />
    <glyph glyph-name="Ograve" unicode="&#xd2;" horiz-adv-x="1896" 
d="M485 1896h410l182 -314h-252zM948 1501q187 0 343 -48t273 -141.5t182.5 -242t65.5 -338.5t-65.5 -338.5t-182.5 -242t-273 -141.5t-343 -48t-343 48t-273 141.5t-182 242t-65 338.5t65.5 338.5t182 242t272.5 141.5t343 48zM948 212q120 0 218.5 32.5t171 95.5
t112.5 163t40 228q0 170 -70.5 289t-190.5 175t-281 56q-120 0 -218 -32.5t-170.5 -96t-112.5 -163.5t-40 -228q0 -170 70 -288.5t190 -174.5t281 -56z" />
    <glyph glyph-name="Oacute" unicode="&#xd3;" horiz-adv-x="1896" 
d="M1416 1896l-340 -314h-253l183 314h410zM948 1501q187 0 343 -48t273 -141.5t182.5 -242t65.5 -338.5t-65.5 -338.5t-182.5 -242t-273 -141.5t-343 -48t-343 48t-273 141.5t-182 242t-65 338.5t65.5 338.5t182 242t272.5 141.5t343 48zM948 212q120 0 218.5 32.5
t171 95.5t112.5 163t40 228q0 170 -70.5 289t-190.5 175t-281 56q-120 0 -218 -32.5t-170.5 -96t-112.5 -163.5t-40 -228q0 -170 70 -288.5t190 -174.5t281 -56z" />
    <glyph glyph-name="Ocircumflex" unicode="&#xd4;" horiz-adv-x="1896" 
d="M1110 1582l-144 171h-9l-144 -171h-329l293 314h369l292 -314h-328zM948 1501q187 0 343 -48t273 -141.5t182.5 -242t65.5 -338.5t-65.5 -338.5t-182.5 -242t-273 -141.5t-343 -48t-343 48t-273 141.5t-182 242t-65 338.5t65.5 338.5t182 242t272.5 141.5t343 48z
M948 212q120 0 218.5 32.5t171 95.5t112.5 163t40 228q0 170 -70.5 289t-190.5 175t-281 56q-120 0 -218 -32.5t-170.5 -96t-112.5 -163.5t-40 -228q0 -170 70 -288.5t190 -174.5t281 -56z" />
    <glyph glyph-name="Otilde" unicode="&#xd5;" horiz-adv-x="1896" 
d="M1151 1554q-59 0 -135.5 30t-143 59.5t-102.5 29.5q-35 0 -49 -21t-13 -77h-219q0 86 22.5 149.5t60.5 97.5t80.5 50t90.5 16q59 0 135.5 -30t143.5 -59.5t103 -29.5q34 0 48 21.5t13 75.5h220q0 -86 -22.5 -149.5t-61 -97.5t-81 -49.5t-90.5 -15.5zM948 1501
q187 0 343 -48t273 -141.5t182.5 -242t65.5 -338.5t-65.5 -338.5t-182.5 -242t-273 -141.5t-343 -48t-343 48t-273 141.5t-182 242t-65 338.5t65.5 338.5t182 242t272.5 141.5t343 48zM948 212q120 0 218.5 32.5t171 95.5t112.5 163t40 228q0 170 -70.5 289t-190.5 175
t-281 56q-120 0 -218 -32.5t-170.5 -96t-112.5 -163.5t-40 -228q0 -170 70 -288.5t190 -174.5t281 -56z" />
    <glyph glyph-name="Odieresis" unicode="&#xd6;" horiz-adv-x="1896" 
d="M542 1595v215h290v-215h-290zM1065 1595v215h290v-215h-290zM948 1501q187 0 343 -48t273 -141.5t182.5 -242t65.5 -338.5t-65.5 -338.5t-182.5 -242t-273 -141.5t-343 -48t-343 48t-273 141.5t-182 242t-65 338.5t65.5 338.5t182 242t272.5 141.5t343 48zM948 212
q120 0 218.5 32.5t171 95.5t112.5 163t40 228q0 170 -70.5 289t-190.5 175t-281 56q-120 0 -218 -32.5t-170.5 -96t-112.5 -163.5t-40 -228q0 -170 70 -288.5t190 -174.5t281 -56z" />
    <glyph glyph-name="multiply" unicode="&#xd7;" horiz-adv-x="1329" 
d="M1168 1012l-344 -344l344 -345l-159 -159l-344 345l-345 -345l-159 159l345 345l-345 344l159 159l345 -344l344 344z" />
    <glyph glyph-name="Oslash" unicode="&#xd8;" horiz-adv-x="1896" 
d="M1619 1260q193 -201 193 -529q0 -190 -65.5 -338.5t-182.5 -242t-273 -141.5t-343 -48q-325 0 -542 137l-187 -180l-129 104l188 180q-193 201 -193 529q0 190 65.5 338.5t182 242t272.5 141.5t343 48q326 0 543 -137l187 180l129 -104zM407 731q0 -194 89 -320l786 753
q-135 87 -334 87q-120 0 -218 -32.5t-170.5 -96t-112.5 -163.5t-40 -228zM948 212q120 0 218.5 32.5t171 95.5t112.5 163t40 228q0 194 -89 320l-786 -753q133 -86 333 -86z" />
    <glyph glyph-name="Ugrave" unicode="&#xd9;" horiz-adv-x="1810" 
d="M442 1896h410l182 -314h-252zM1363 1462h295v-887q0 -162 -54 -281.5t-155.5 -191.5t-236 -106.5t-306.5 -34.5t-306.5 34.5t-236.5 106.5t-156 191.5t-54 281.5v887h295v-881q0 -192 122 -282.5t336 -90.5t335.5 90.5t121.5 282.5v881z" />
    <glyph glyph-name="Uacute" unicode="&#xda;" horiz-adv-x="1810" 
d="M1373 1896l-340 -314h-253l183 314h410zM1363 1462h295v-887q0 -162 -54 -281.5t-155.5 -191.5t-236 -106.5t-306.5 -34.5t-306.5 34.5t-236.5 106.5t-156 191.5t-54 281.5v887h295v-881q0 -192 122 -282.5t336 -90.5t335.5 90.5t121.5 282.5v881z" />
    <glyph glyph-name="Ucircumflex" unicode="&#xdb;" horiz-adv-x="1810" 
d="M1067 1582l-144 171h-9l-144 -171h-328l292 314h369l293 -314h-329zM1363 1462h295v-887q0 -162 -54 -281.5t-155.5 -191.5t-236 -106.5t-306.5 -34.5t-306.5 34.5t-236.5 106.5t-156 191.5t-54 281.5v887h295v-881q0 -192 122 -282.5t336 -90.5t335.5 90.5t121.5 282.5
v881z" />
    <glyph glyph-name="Udieresis" unicode="&#xdc;" horiz-adv-x="1810" 
d="M499 1595v215h290v-215h-290zM1022 1595v215h290v-215h-290zM1363 1462h295v-887q0 -162 -54 -281.5t-155.5 -191.5t-236 -106.5t-306.5 -34.5t-306.5 34.5t-236.5 106.5t-156 191.5t-54 281.5v887h295v-881q0 -192 122 -282.5t336 -90.5t335.5 90.5t121.5 282.5v881z
" />
    <glyph glyph-name="Yacute" unicode="&#xdd;" horiz-adv-x="1677" 
d="M1311 1896l-339 -314h-253l182 314h410zM1669 1462l-682 -923v-539h-296v535l-683 927h355l476 -667l484 667h346z" />
    <glyph glyph-name="Thorn" unicode="&#xde;" horiz-adv-x="1718" 
d="M1123 1218q269 0 393 -107.5t124 -340.5t-124 -341t-393 -108h-675v-321h-295v1462h295v-244h675zM1076 554q125 0 183.5 50.5t58.5 159.5t-58.5 159.5t-183.5 50.5h-628v-420h628z" />
    <glyph glyph-name="germandbls" unicode="&#xdf;" horiz-adv-x="1521" 
d="M1134 837v-9q164 -30 238 -131t74 -267q0 -232 -141.5 -347.5t-455.5 -115.5q-135 0 -233 29v236q98 -36 209 -36q321 0 321 238q0 136 -83.5 195t-251.5 59h-195v205h174q94 0 162 52t68 153q0 94 -72.5 140.5t-185.5 46.5q-334 0 -334 -324v-961h-296v977
q0 145 41 247.5t123 164.5t196 90.5t270 28.5q283 0 420.5 -102.5t137.5 -295.5q0 -99 -45.5 -170t-140.5 -103z" />
    <glyph glyph-name="agrave" unicode="&#xe0;" horiz-adv-x="1441" 
d="M249 1533h410l183 -314h-253zM1279 178q0 -129 31 -166v-12h-284q-31 31 -31 128v33q-155 -198 -491 -198q-89 0 -167 21.5t-140 63.5t-98 110.5t-36 156.5q0 86 26.5 150.5t74 104t105.5 61t129 29.5l444 46q72 8 104.5 31.5t32.5 72.5q0 117 -262 117
q-125 0 -201.5 -38.5t-82.5 -114.5h-303q3 98 50.5 170.5t130 114t183 61.5t220.5 20q130 0 229.5 -16.5t177 -54t118 -102.5t40.5 -157v-632zM989 486v61q-26 -18 -95 -28l-362 -47q-82 -11 -125.5 -45.5t-43.5 -107.5q0 -154 215 -154q53 0 106.5 9.5t109.5 33t98.5 59
t69.5 92t27 127.5z" />
    <glyph glyph-name="aacute" unicode="&#xe1;" horiz-adv-x="1441" 
d="M1177 1533l-339 -314h-253l182 314h410zM1279 178q0 -129 31 -166v-12h-284q-31 31 -31 128v33q-155 -198 -491 -198q-89 0 -167 21.5t-140 63.5t-98 110.5t-36 156.5q0 86 26.5 150.5t74 104t105.5 61t129 29.5l444 46q72 8 104.5 31.5t32.5 72.5q0 117 -262 117
q-125 0 -201.5 -38.5t-82.5 -114.5h-303q3 98 50.5 170.5t130 114t183 61.5t220.5 20q130 0 229.5 -16.5t177 -54t118 -102.5t40.5 -157v-632zM989 486v61q-26 -18 -95 -28l-362 -47q-82 -11 -125.5 -45.5t-43.5 -107.5q0 -154 215 -154q53 0 106.5 9.5t109.5 33t98.5 59
t69.5 92t27 127.5z" />
    <glyph glyph-name="acircumflex" unicode="&#xe2;" horiz-adv-x="1441" 
d="M862 1219l-143 171h-9l-144 -171h-329l292 314h370l292 -314h-329zM1279 178q0 -129 31 -166v-12h-284q-31 31 -31 128v33q-155 -198 -491 -198q-89 0 -167 21.5t-140 63.5t-98 110.5t-36 156.5q0 86 26.5 150.5t74 104t105.5 61t129 29.5l444 46q72 8 104.5 31.5
t32.5 72.5q0 117 -262 117q-125 0 -201.5 -38.5t-82.5 -114.5h-303q3 98 50.5 170.5t130 114t183 61.5t220.5 20q130 0 229.5 -16.5t177 -54t118 -102.5t40.5 -157v-632zM989 486v61q-26 -18 -95 -28l-362 -47q-82 -11 -125.5 -45.5t-43.5 -107.5q0 -154 215 -154
q53 0 106.5 9.5t109.5 33t98.5 59t69.5 92t27 127.5z" />
    <glyph glyph-name="atilde" unicode="&#xe3;" horiz-adv-x="1441" 
d="M916 1190q-59 0 -135.5 30t-143 59.5t-102.5 29.5q-34 0 -48 -21t-13 -77h-220q0 86 22.5 149.5t61 97.5t81 50t90.5 16q59 0 135.5 -30t143.5 -59.5t103 -29.5q34 0 48 21.5t13 75.5h220q0 -69 -15.5 -124t-40.5 -89.5t-59 -57.5t-68.5 -32t-72.5 -9zM1279 178
q0 -129 31 -166v-12h-284q-31 31 -31 128v33q-155 -198 -491 -198q-89 0 -167 21.5t-140 63.5t-98 110.5t-36 156.5q0 86 26.5 150.5t74 104t105.5 61t129 29.5l444 46q72 8 104.5 31.5t32.5 72.5q0 117 -262 117q-125 0 -201.5 -38.5t-82.5 -114.5h-303q3 98 50.5 170.5
t130 114t183 61.5t220.5 20q130 0 229.5 -16.5t177 -54t118 -102.5t40.5 -157v-632zM989 486v61q-26 -18 -95 -28l-362 -47q-82 -11 -125.5 -45.5t-43.5 -107.5q0 -154 215 -154q53 0 106.5 9.5t109.5 33t98.5 59t69.5 92t27 127.5z" />
    <glyph glyph-name="adieresis" unicode="&#xe4;" horiz-adv-x="1441" 
d="M308 1278v215h290v-215h-290zM831 1278v215h289v-215h-289zM1279 178q0 -129 31 -166v-12h-284q-31 31 -31 128v33q-155 -198 -491 -198q-89 0 -167 21.5t-140 63.5t-98 110.5t-36 156.5q0 86 26.5 150.5t74 104t105.5 61t129 29.5l444 46q72 8 104.5 31.5t32.5 72.5
q0 117 -262 117q-125 0 -201.5 -38.5t-82.5 -114.5h-303q3 98 50.5 170.5t130 114t183 61.5t220.5 20q130 0 229.5 -16.5t177 -54t118 -102.5t40.5 -157v-632zM989 486v61q-26 -18 -95 -28l-362 -47q-82 -11 -125.5 -45.5t-43.5 -107.5q0 -154 215 -154q53 0 106.5 9.5
t109.5 33t98.5 59t69.5 92t27 127.5z" />
    <glyph glyph-name="aring" unicode="&#xe5;" horiz-adv-x="1441" 
d="M716 1205q-132 0 -220.5 69t-88.5 183q0 113 88.5 182t220.5 69t220.5 -69t88.5 -182q0 -114 -88.5 -183t-220.5 -69zM716 1357q49 0 82.5 27.5t33.5 72.5t-33.5 72.5t-82.5 27.5t-83 -27.5t-34 -72.5t34 -72.5t83 -27.5zM1279 178q0 -129 31 -166v-12h-284
q-31 31 -31 128v33q-155 -198 -491 -198q-89 0 -167 21.5t-140 63.5t-98 110.5t-36 156.5q0 86 26.5 150.5t74 104t105.5 61t129 29.5l444 46q72 8 104.5 31.5t32.5 72.5q0 117 -262 117q-125 0 -201.5 -38.5t-82.5 -114.5h-303q3 98 50.5 170.5t130 114t183 61.5t220.5 20
q130 0 229.5 -16.5t177 -54t118 -102.5t40.5 -157v-632zM989 486v61q-26 -18 -95 -28l-362 -47q-82 -11 -125.5 -45.5t-43.5 -107.5q0 -154 215 -154q53 0 106.5 9.5t109.5 33t98.5 59t69.5 92t27 127.5z" />
    <glyph glyph-name="ae" unicode="&#xe6;" horiz-adv-x="2328" 
d="M2254 551q0 -31 -4 -73h-971q14 -151 103 -225.5t243 -74.5q75 0 133 16t90.5 42t50.5 53t23 56h319q-7 -59 -29.5 -111t-69.5 -103t-114.5 -87t-171 -58.5t-231.5 -22.5q-177 0 -312.5 61.5t-194.5 172.5q-164 -234 -565 -234q-221 0 -355.5 89t-134.5 263
q0 86 26.5 150.5t74 104t105.5 61t129 29.5l444 46q72 8 104.5 31.5t32.5 72.5q0 117 -262 117q-125 0 -201.5 -38.5t-82.5 -114.5h-303q3 98 50.5 170.5t130 114t183 61.5t220.5 20q371 0 472 -152q60 73 175.5 112.5t255.5 39.5q302 0 469.5 -155.5t167.5 -433.5z
M1617 925q-132 0 -216.5 -60.5t-111.5 -180.5h656q-27 120 -111.5 180.5t-216.5 60.5zM989 486v61q-26 -18 -95 -28l-362 -47q-82 -11 -125.5 -45.5t-43.5 -107.5q0 -154 215 -154q53 0 106.5 9.5t109.5 33t98.5 59t69.5 92t27 127.5z" />
    <glyph glyph-name="ccedilla" unicode="&#xe7;" horiz-adv-x="1466" 
d="M1391 415q-12 -92 -50 -167t-105 -136t-172 -99t-242 -47l-39 -57q37 6 75 6q247 0 247 -188q0 -109 -90.5 -156t-263.5 -47q-150 0 -254 28v144h9q128 -39 230 -39q118 0 118 70q0 69 -118 69q-31 0 -79 -5.5t-66 -11.5h-9v78l74 108q-276 20 -428.5 173.5t-152.5 411.5
q0 280 174 435t485 155q129 0 233 -22.5t177 -62t125 -96.5t80 -122.5t39 -142.5h-318q-38 217 -336 217q-168 0 -263.5 -93t-95.5 -268q0 -173 95.5 -265.5t263.5 -92.5q301 0 338 223h319z" />
    <glyph glyph-name="egrave" unicode="&#xe8;" horiz-adv-x="1466" 
d="M861 1219h-253l-340 314h410zM1391 551q0 -21 -5 -73h-1011q15 -151 109.5 -225.5t258.5 -74.5q79 0 139.5 16t96 42t54.5 53t26 56h318q-8 -59 -31.5 -111.5t-72.5 -103t-118.5 -87t-175 -58.5t-236.5 -22q-317 0 -492.5 155t-175.5 433q0 277 174 433t484 156t484 -156
t174 -433zM733 925q-140 0 -230 -60.5t-118 -180.5h696q-28 120 -118 180.5t-230 60.5z" />
    <glyph glyph-name="eacute" unicode="&#xe9;" horiz-adv-x="1466" 
d="M1196 1533l-340 -314h-253l183 314h410zM1391 551q0 -21 -5 -73h-1011q15 -151 109.5 -225.5t258.5 -74.5q79 0 139.5 16t96 42t54.5 53t26 56h318q-8 -59 -31.5 -111.5t-72.5 -103t-118.5 -87t-175 -58.5t-236.5 -22q-317 0 -492.5 155t-175.5 433q0 277 174 433
t484 156t484 -156t174 -433zM733 925q-140 0 -230 -60.5t-118 -180.5h696q-28 120 -118 180.5t-230 60.5z" />
    <glyph glyph-name="ecircumflex" unicode="&#xea;" horiz-adv-x="1466" 
d="M728 1390l-144 -171h-328l292 314h370l292 -314h-329l-144 171h-9zM1391 551q0 -21 -5 -73h-1011q15 -151 109.5 -225.5t258.5 -74.5q79 0 139.5 16t96 42t54.5 53t26 56h318q-8 -59 -31.5 -111.5t-72.5 -103t-118.5 -87t-175 -58.5t-236.5 -22q-317 0 -492.5 155
t-175.5 433q0 277 174 433t484 156t484 -156t174 -433zM733 925q-140 0 -230 -60.5t-118 -180.5h696q-28 120 -118 180.5t-230 60.5z" />
    <glyph glyph-name="edieresis" unicode="&#xeb;" horiz-adv-x="1466" 
d="M616 1493v-215h-289v215h289zM1139 1493v-215h-290v215h290zM1391 551q0 -21 -5 -73h-1011q15 -151 109.5 -225.5t258.5 -74.5q79 0 139.5 16t96 42t54.5 53t26 56h318q-8 -59 -31.5 -111.5t-72.5 -103t-118.5 -87t-175 -58.5t-236.5 -22q-317 0 -492.5 155t-175.5 433
q0 277 174 433t484 156t484 -156t174 -433zM733 925q-140 0 -230 -60.5t-118 -180.5h696q-28 120 -118 180.5t-230 60.5z" />
    <glyph glyph-name="igrave" unicode="&#xec;" horiz-adv-x="555" 
d="M-187 1533h410l182 -314h-253zM132 0v1103h290v-1103h-290z" />
    <glyph glyph-name="iacute" unicode="&#xed;" horiz-adv-x="555" 
d="M740 1533l-339 -314h-253l182 314h410zM132 0v1103h290v-1103h-290z" />
    <glyph glyph-name="icircumflex" unicode="&#xee;" horiz-adv-x="555" 
d="M426 1219l-144 171h-9l-144 -171h-329l292 314h370l292 -314h-328zM132 0v1103h290v-1103h-290z" />
    <glyph glyph-name="idieresis" unicode="&#xef;" horiz-adv-x="555" 
d="M-129 1278v215h290v-215h-290zM394 1278v215h289v-215h-289zM132 0v1103h290v-1103h-290z" />
    <glyph glyph-name="eth" unicode="&#xf0;" horiz-adv-x="1470" 
d="M923 1338q472 -242 472 -758q0 -158 -52.5 -278.5t-146.5 -193.5t-215.5 -109t-267.5 -36q-107 0 -199 16.5t-174 55t-140 96.5t-91.5 146t-33.5 198q0 111 34.5 199.5t92.5 146.5t139 97t170 55.5t189 16.5q202 0 346 -94l6 3q-100 190 -364 297l-250 -151l-145 100
l193 117q-159 41 -314 62l129 192q247 -37 439 -101l227 137l145 -100zM726 188q76 0 137.5 16t110 49t75 90t26.5 134q0 147 -95.5 217t-253.5 70t-253.5 -70t-95.5 -217q0 -77 26.5 -134t75 -90t110 -49t137.5 -16z" />
    <glyph glyph-name="ntilde" unicode="&#xf1;" 
d="M941 1190q-59 0 -135.5 30t-143 59.5t-102.5 29.5q-34 0 -48 -21t-13 -77h-220q0 86 22.5 149.5t61 97.5t81 50t90.5 16q59 0 135.5 -30t143.5 -59.5t103 -29.5q34 0 48 21.5t13 75.5h220q0 -69 -15.5 -124t-40.5 -89.5t-59 -57.5t-68.5 -32t-72.5 -9zM416 1103v-141h9
q164 168 443 168q104 0 189.5 -23.5t150.5 -70.5t101 -124.5t36 -179.5v-732h-290v634q0 137 -74 198.5t-218 61.5q-64 0 -122 -17.5t-108.5 -53.5t-80.5 -101t-30 -151v-571h-290v1103h284z" />
    <glyph glyph-name="ograve" unicode="&#xf2;" horiz-adv-x="1488" 
d="M279 1533h410l183 -314h-253zM744 1140q317 0 493 -155.5t176 -433.5t-176 -433t-493 -155t-493 155t-176 433t176 433.5t493 155.5zM744 192q176 0 272.5 92t96.5 267t-96.5 267.5t-272.5 92.5t-272.5 -92.5t-96.5 -267.5t96.5 -267t272.5 -92z" />
    <glyph glyph-name="oacute" unicode="&#xf3;" horiz-adv-x="1488" 
d="M1207 1533l-339 -314h-253l182 314h410zM744 1140q317 0 493 -155.5t176 -433.5t-176 -433t-493 -155t-493 155t-176 433t176 433.5t493 155.5zM744 192q176 0 272.5 92t96.5 267t-96.5 267.5t-272.5 92.5t-272.5 -92.5t-96.5 -267.5t96.5 -267t272.5 -92z" />
    <glyph glyph-name="ocircumflex" unicode="&#xf4;" horiz-adv-x="1488" 
d="M893 1219l-144 171h-9l-144 -171h-329l292 314h370l292 -314h-328zM744 1140q317 0 493 -155.5t176 -433.5t-176 -433t-493 -155t-493 155t-176 433t176 433.5t493 155.5zM744 192q176 0 272.5 92t96.5 267t-96.5 267.5t-272.5 92.5t-272.5 -92.5t-96.5 -267.5t96.5 -267
t272.5 -92z" />
    <glyph glyph-name="otilde" unicode="&#xf5;" horiz-adv-x="1488" 
d="M947 1190q-59 0 -135.5 30t-143.5 59.5t-103 29.5q-34 0 -48 -21t-13 -77h-220q0 86 22.5 149.5t61 97.5t81 50t90.5 16q59 0 135.5 -30t143.5 -59.5t103 -29.5q34 0 48 21.5t13 75.5h220q0 -86 -22.5 -149.5t-61 -97.5t-81 -49.5t-90.5 -15.5zM744 1140
q317 0 493 -155.5t176 -433.5t-176 -433t-493 -155t-493 155t-176 433t176 433.5t493 155.5zM744 192q176 0 272.5 92t96.5 267t-96.5 267.5t-272.5 92.5t-272.5 -92.5t-96.5 -267.5t96.5 -267t272.5 -92z" />
    <glyph glyph-name="odieresis" unicode="&#xf6;" horiz-adv-x="1488" 
d="M338 1278v215h290v-215h-290zM861 1278v215h289v-215h-289zM744 1140q317 0 493 -155.5t176 -433.5t-176 -433t-493 -155t-493 155t-176 433t176 433.5t493 155.5zM744 192q176 0 272.5 92t96.5 267t-96.5 267.5t-272.5 92.5t-272.5 -92.5t-96.5 -267.5t96.5 -267
t272.5 -92z" />
    <glyph glyph-name="divide" unicode="&#xf7;" horiz-adv-x="1404" 
d="M702 919q-70 0 -120 50t-50 121q0 70 50 120t120 50t120 -50t50 -120q0 -71 -50 -121t-120 -50zM1243 779v-222h-1082v222h1082zM702 76q-70 0 -120 50t-50 120t50 120t120 50t120 -50t50 -120t-50 -120t-120 -50z" />
    <glyph glyph-name="oslash" unicode="&#xf8;" horiz-adv-x="1488" 
d="M1279 943q134 -149 134 -392q0 -278 -176 -433t-493 -155q-266 0 -434 110l-123 -111l-107 80l130 116q-135 150 -135 393q0 278 176 433.5t493 155.5q265 0 435 -111l122 110l107 -80zM375 551q0 -120 47 -202l557 500q-91 62 -235 62q-176 0 -272.5 -92.5t-96.5 -267.5
zM744 192q176 0 272.5 92t96.5 267q0 119 -46 202l-556 -500q91 -61 233 -61z" />
    <glyph glyph-name="ugrave" unicode="&#xf9;" 
d="M274 1533h410l183 -314h-253zM1062 0v140h-9q-163 -167 -444 -167q-104 0 -189.5 23.5t-150.5 70.5t-101 124.5t-36 179.5v732h290v-634q0 -137 74.5 -199t218.5 -62q64 0 121.5 17.5t108 54t80.5 101.5t30 151v571h290v-1103h-283z" />
    <glyph glyph-name="uacute" unicode="&#xfa;" 
d="M1202 1533l-340 -314h-253l183 314h410zM1062 0v140h-9q-163 -167 -444 -167q-104 0 -189.5 23.5t-150.5 70.5t-101 124.5t-36 179.5v732h290v-634q0 -137 74.5 -199t218.5 -62q64 0 121.5 17.5t108 54t80.5 101.5t30 151v571h290v-1103h-283z" />
    <glyph glyph-name="ucircumflex" unicode="&#xfb;" 
d="M887 1219l-144 171h-9l-144 -171h-328l292 314h370l292 -314h-329zM1062 0v140h-9q-163 -167 -444 -167q-104 0 -189.5 23.5t-150.5 70.5t-101 124.5t-36 179.5v732h290v-634q0 -137 74.5 -199t218.5 -62q64 0 121.5 17.5t108 54t80.5 101.5t30 151v571h290v-1103h-283z
" />
    <glyph glyph-name="udieresis" unicode="&#xfc;" 
d="M333 1278v215h289v-215h-289zM855 1278v215h290v-215h-290zM1062 0v140h-9q-163 -167 -444 -167q-104 0 -189.5 23.5t-150.5 70.5t-101 124.5t-36 179.5v732h290v-634q0 -137 74.5 -199t218.5 -62q64 0 121.5 17.5t108 54t80.5 101.5t30 151v571h290v-1103h-283z" />
    <glyph glyph-name="yacute" unicode="&#xfd;" horiz-adv-x="1415" 
d="M1171 1533l-340 -314h-253l182 314h411zM1390 1103l-560 -1190q-88 -186 -197.5 -254.5t-303.5 -68.5q-112 0 -199 9v246q115 -12 174 -12q72 0 120.5 23.5t77.5 86.5l36 80l-513 1080h323l353 -805h9l357 805h323z" />
    <glyph glyph-name="thorn" unicode="&#xfe;" horiz-adv-x="1517" 
d="M431 138h-9v-520h-290v1865h290v-528h9q65 81 172 128t243 47q270 0 432.5 -154.5t162.5 -429.5t-162.5 -429t-432.5 -154q-136 0 -243 47t-172 128zM779 901q-170 0 -267.5 -96.5t-97.5 -258.5q0 -161 97.5 -257.5t267.5 -96.5q174 0 268 89.5t94 264.5t-94 265t-268 90
z" />
    <glyph glyph-name="ydieresis" unicode="&#xff;" horiz-adv-x="1415" 
d="M301 1278v215h290v-215h-290zM824 1278v215h290v-215h-290zM1390 1103l-560 -1190q-88 -186 -197.5 -254.5t-303.5 -68.5q-112 0 -199 9v246q115 -12 174 -12q72 0 120.5 23.5t77.5 86.5l36 80l-513 1080h323l353 -805h9l357 805h323z" />
    <glyph glyph-name="Amacron" unicode="&#x100;" horiz-adv-x="1798" 
d="M1306 1799v-198h-813v198h813zM1454 0l-145 310h-827l-145 -310h-318l701 1462h358l701 -1462h-325zM593 550h605l-298 640h-9z" />
    <glyph glyph-name="amacron" unicode="&#x101;" horiz-adv-x="1441" 
d="M1120 1271h-812v198h812v-198zM1279 178q0 -129 31 -166v-12h-284q-31 31 -31 128v33q-155 -198 -491 -198q-89 0 -167 21.5t-140 63.5t-98 110.5t-36 156.5q0 86 26.5 150.5t74 104t105.5 61t129 29.5l444 46q72 8 104.5 31.5t32.5 72.5q0 117 -262 117
q-125 0 -201.5 -38.5t-82.5 -114.5h-303q3 98 50.5 170.5t130 114t183 61.5t220.5 20q130 0 229.5 -16.5t177 -54t118 -102.5t40.5 -157v-632zM989 486v61q-26 -18 -95 -28l-362 -47q-82 -11 -125.5 -45.5t-43.5 -107.5q0 -154 215 -154q53 0 106.5 9.5t109.5 33t98.5 59
t69.5 92t27 127.5z" />
    <glyph glyph-name="Abreve" unicode="&#x102;" horiz-adv-x="1798" 
d="M899 1568q-84 0 -158 19.5t-133.5 58t-95.5 103t-37 146.5h246q15 -123 178 -123q164 0 179 123h246q-1 -66 -25 -121t-64 -92.5t-94 -63.5t-115 -38t-127 -12zM1454 0l-145 310h-827l-145 -310h-318l701 1462h358l701 -1462h-325zM593 550h605l-298 640h-9z" />
    <glyph glyph-name="abreve" unicode="&#x103;" horiz-adv-x="1441" 
d="M1139 1532q-1 -66 -25 -121t-64 -92.5t-94 -63.5t-115 -38t-127 -12t-127 12t-115 38t-94 63.5t-64 92.5t-25 121h246q15 -123 179 -123q163 0 178 123h247zM1279 178q0 -129 31 -166v-12h-284q-31 31 -31 128v33q-155 -198 -491 -198q-89 0 -167 21.5t-140 63.5
t-98 110.5t-36 156.5q0 86 26.5 150.5t74 104t105.5 61t129 29.5l444 46q72 8 104.5 31.5t32.5 72.5q0 117 -262 117q-125 0 -201.5 -38.5t-82.5 -114.5h-303q3 98 50.5 170.5t130 114t183 61.5t220.5 20q130 0 229.5 -16.5t177 -54t118 -102.5t40.5 -157v-632zM989 486v61
q-26 -18 -95 -28l-362 -47q-82 -11 -125.5 -45.5t-43.5 -107.5q0 -154 215 -154q53 0 106.5 9.5t109.5 33t98.5 59t69.5 92t27 127.5z" />
    <glyph glyph-name="Aogonek" unicode="&#x104;" horiz-adv-x="1798" 
d="M1549 -228q0 -38 32 -56.5t78 -18.5q58 0 120 17v-167q-77 -17 -172 -17q-343 0 -343 204q0 28 15.5 63t44.5 72.5t78.5 73t111.5 57.5h-60l-145 310h-827l-145 -310h-318l701 1462h358l701 -1462q-230 -90 -230 -228zM593 550h605l-298 640h-9z" />
    <glyph glyph-name="aogonek" unicode="&#x105;" horiz-adv-x="1409" 
d="M1310 0q-230 -90 -230 -228q0 -38 32 -56.5t78 -18.5q58 0 120 17v-167q-77 -17 -172 -17q-343 0 -343 204q0 28 15.5 63t44.5 72.5t78.5 73t111.5 57.5h-19q-31 31 -31 128v33q-155 -198 -491 -198q-89 0 -167 21.5t-140 63.5t-98 110.5t-36 156.5q0 86 26.5 150.5
t74 104t105.5 61t129 29.5l444 46q72 8 104.5 31.5t32.5 72.5q0 117 -262 117q-125 0 -201.5 -38.5t-82.5 -114.5h-303q3 98 50.5 170.5t130 114t183 61.5t220.5 20q130 0 229.5 -16.5t177 -54t118 -102.5t40.5 -157v-632q0 -129 31 -166v-12zM989 486v61q-26 -18 -95 -28
l-362 -47q-82 -11 -125.5 -45.5t-43.5 -107.5q0 -154 215 -154q53 0 106.5 9.5t109.5 33t98.5 59t69.5 92t27 127.5z" />
    <glyph glyph-name="Cacute" unicode="&#x106;" horiz-adv-x="1814" 
d="M1390 1896l-340 -314h-253l183 314h410zM1385 924q-11 141 -129.5 234t-333.5 93q-110 0 -203 -32.5t-163 -96t-109.5 -163.5t-39.5 -228t39.5 -228t109.5 -163t163 -95.5t203 -32.5q220 0 338 97.5t126 259.5h344q-5 -187 -106 -325t-281.5 -210.5t-420.5 -72.5
q-177 0 -327.5 48t-265 141t-179.5 242t-65 339t65 338.5t179.5 242t265 141.5t327.5 48q359 0 574.5 -157.5t229.5 -419.5h-341z" />
    <glyph glyph-name="cacute" unicode="&#x107;" horiz-adv-x="1466" 
d="M1197 1533l-340 -314h-253l183 314h410zM734 192q301 0 338 223h319q-13 -99 -56 -178.5t-119.5 -142t-199 -97t-282.5 -34.5q-311 0 -485 155t-174 432q0 280 174 435t485 155q129 0 233 -22.5t177 -62t125 -96.5t80 -122.5t39 -142.5h-318q-38 217 -336 217
q-168 0 -263.5 -93t-95.5 -268q0 -173 95.5 -265.5t263.5 -92.5z" />
    <glyph glyph-name="Ccircumflex" unicode="&#x108;" horiz-adv-x="1814" 
d="M1084 1582l-144 171h-9l-144 -171h-329l292 314h370l292 -314h-328zM1385 924q-11 141 -129.5 234t-333.5 93q-110 0 -203 -32.5t-163 -96t-109.5 -163.5t-39.5 -228t39.5 -228t109.5 -163t163 -95.5t203 -32.5q220 0 338 97.5t126 259.5h344q-5 -187 -106 -325
t-281.5 -210.5t-420.5 -72.5q-177 0 -327.5 48t-265 141t-179.5 242t-65 339t65 338.5t179.5 242t265 141.5t327.5 48q359 0 574.5 -157.5t229.5 -419.5h-341z" />
    <glyph glyph-name="ccircumflex" unicode="&#x109;" horiz-adv-x="1466" 
d="M882 1219l-144 171h-9l-144 -171h-328l292 314h369l293 -314h-329zM734 192q301 0 338 223h319q-13 -99 -56 -178.5t-119.5 -142t-199 -97t-282.5 -34.5q-311 0 -485 155t-174 432q0 280 174 435t485 155q129 0 233 -22.5t177 -62t125 -96.5t80 -122.5t39 -142.5h-318
q-38 217 -336 217q-168 0 -263.5 -93t-95.5 -268q0 -173 95.5 -265.5t263.5 -92.5z" />
    <glyph glyph-name="Cdotaccent" unicode="&#x10a;" horiz-adv-x="1814" 
d="M773 1595v215h298v-215h-298zM1385 924q-11 141 -129.5 234t-333.5 93q-110 0 -203 -32.5t-163 -96t-109.5 -163.5t-39.5 -228t39.5 -228t109.5 -163t163 -95.5t203 -32.5q220 0 338 97.5t126 259.5h344q-5 -187 -106 -325t-281.5 -210.5t-420.5 -72.5q-177 0 -327.5 48
t-265 141t-179.5 242t-65 339t65 338.5t179.5 242t265 141.5t327.5 48q359 0 574.5 -157.5t229.5 -419.5h-341z" />
    <glyph glyph-name="cdotaccent" unicode="&#x10b;" horiz-adv-x="1466" 
d="M584 1276v215h299v-215h-299zM734 192q301 0 338 223h319q-13 -99 -56 -178.5t-119.5 -142t-199 -97t-282.5 -34.5q-311 0 -485 155t-174 432q0 280 174 435t485 155q129 0 233 -22.5t177 -62t125 -96.5t80 -122.5t39 -142.5h-318q-38 217 -336 217q-168 0 -263.5 -93
t-95.5 -268q0 -173 95.5 -265.5t263.5 -92.5z" />
    <glyph glyph-name="Ccaron" unicode="&#x10c;" horiz-adv-x="1814" 
d="M1071 1896h328l-292 -314h-370l-292 314h329l144 -171h9zM1385 924q-11 141 -129.5 234t-333.5 93q-110 0 -203 -32.5t-163 -96t-109.5 -163.5t-39.5 -228t39.5 -228t109.5 -163t163 -95.5t203 -32.5q220 0 338 97.5t126 259.5h344q-5 -187 -106 -325t-281.5 -210.5
t-420.5 -72.5q-177 0 -327.5 48t-265 141t-179.5 242t-65 339t65 338.5t179.5 242t265 141.5t327.5 48q359 0 574.5 -157.5t229.5 -419.5h-341z" />
    <glyph glyph-name="ccaron" unicode="&#x10d;" horiz-adv-x="1466" 
d="M882 1533h329l-293 -314h-369l-292 314h328l144 -171h9zM734 192q301 0 338 223h319q-13 -99 -56 -178.5t-119.5 -142t-199 -97t-282.5 -34.5q-311 0 -485 155t-174 432q0 280 174 435t485 155q129 0 233 -22.5t177 -62t125 -96.5t80 -122.5t39 -142.5h-318
q-38 217 -336 217q-168 0 -263.5 -93t-95.5 -268q0 -173 95.5 -265.5t263.5 -92.5z" />
    <glyph glyph-name="Dcaron" unicode="&#x10e;" horiz-adv-x="1783" 
d="M973 1896h329l-293 -314h-369l-293 314h329l144 -172h9zM922 1462q777 0 777 -731q0 -192 -52.5 -333t-154 -228t-243 -128.5t-327.5 -41.5h-769v1462h769zM864 1217h-416v-971h416q513 0 513 485q0 486 -513 486z" />
    <glyph glyph-name="dcaron" unicode="&#x10f;" horiz-adv-x="1757" 
d="M1085 955h9v528h290v-1483h-283v150h-9q-65 -88 -174.5 -137.5t-247.5 -49.5q-270 0 -432.5 154t-162.5 429t162.5 429.5t432.5 154.5q136 0 243 -47t172 -128zM1753 1483v-183q0 -157 -57 -229t-212 -73v108q76 1 100.5 32t24.5 105h-125v240h269zM738 192q170 0 267 96
t97 258t-97 258.5t-267 96.5q-174 0 -268.5 -90t-94.5 -265t94.5 -264.5t268.5 -89.5z" />
    <glyph glyph-name="Dcroat" unicode="&#x110;" horiz-adv-x="1959" 
d="M1074 1462q777 0 777 -731q0 -192 -52.5 -333t-154 -228t-243 -128.5t-327.5 -41.5h-769v626h-152v210h152v626h769zM1015 246q513 0 513 485q0 486 -513 486h-415v-381h384v-210h-384v-380h415z" />
    <glyph glyph-name="dcroat" unicode="&#x111;" horiz-adv-x="1533" 
d="M1384 1371h152v-170h-152v-1201h-283v150h-9q-65 -88 -174.5 -137.5t-247.5 -49.5q-270 0 -432.5 154t-162.5 429t162.5 429.5t432.5 154.5q136 0 243 -47t172 -128h9v246h-315v170h315v112h290v-112zM738 192q170 0 267 96t97 258t-97 258.5t-267 96.5
q-174 0 -268.5 -90t-94.5 -265t94.5 -264.5t268.5 -89.5z" />
    <glyph glyph-name="Emacron" unicode="&#x112;" horiz-adv-x="1605" 
d="M1218 1601h-813v198h813v-198zM448 1216v-338h988v-236h-988v-396h1047v-246h-1342v1462h1316v-246h-1021z" />
    <glyph glyph-name="emacron" unicode="&#x113;" horiz-adv-x="1466" 
d="M1139 1469v-198h-813v198h813zM1391 551q0 -21 -5 -73h-1011q15 -151 109.5 -225.5t258.5 -74.5q79 0 139.5 16t96 42t54.5 53t26 56h318q-8 -59 -31.5 -111.5t-72.5 -103t-118.5 -87t-175 -58.5t-236.5 -22q-317 0 -492.5 155t-175.5 433q0 277 174 433t484 156
t484 -156t174 -433zM733 925q-140 0 -230 -60.5t-118 -180.5h696q-28 120 -118 180.5t-230 60.5z" />
    <glyph glyph-name="Ebreve" unicode="&#x114;" horiz-adv-x="1605" 
d="M1236 1895q-1 -66 -25 -121t-64 -92.5t-94 -63.5t-115 -38t-127 -12q-84 0 -158 19.5t-133.5 58t-95.5 103t-37 146.5h246q15 -123 178 -123q164 0 179 123h246zM448 1216v-338h988v-236h-988v-396h1047v-246h-1342v1462h1316v-246h-1021z" />
    <glyph glyph-name="ebreve" unicode="&#x115;" horiz-adv-x="1466" 
d="M732 1205q-84 0 -158 19.5t-133.5 58t-95.5 103t-37 146.5h246q15 -123 178 -123q164 0 179 123h246q-1 -66 -25 -121t-64 -92.5t-94 -63.5t-115 -38t-127 -12zM1391 551q0 -21 -5 -73h-1011q15 -151 109.5 -225.5t258.5 -74.5q79 0 139.5 16t96 42t54.5 53t26 56h318
q-8 -59 -31.5 -111.5t-72.5 -103t-118.5 -87t-175 -58.5t-236.5 -22q-317 0 -492.5 155t-175.5 433q0 277 174 433t484 156t484 -156t174 -433zM733 925q-140 0 -230 -60.5t-118 -180.5h696q-28 120 -118 180.5t-230 60.5z" />
    <glyph glyph-name="Edotaccent" unicode="&#x116;" horiz-adv-x="1605" 
d="M662 1595v215h298v-215h-298zM448 1216v-338h988v-236h-988v-396h1047v-246h-1342v1462h1316v-246h-1021z" />
    <glyph glyph-name="edotaccent" unicode="&#x117;" horiz-adv-x="1466" 
d="M882 1491v-215h-298v215h298zM1391 551q0 -21 -5 -73h-1011q15 -151 109.5 -225.5t258.5 -74.5q79 0 139.5 16t96 42t54.5 53t26 56h318q-8 -59 -31.5 -111.5t-72.5 -103t-118.5 -87t-175 -58.5t-236.5 -22q-317 0 -492.5 155t-175.5 433q0 277 174 433t484 156t484 -156
t174 -433zM733 925q-140 0 -230 -60.5t-118 -180.5h696q-28 120 -118 180.5t-230 60.5z" />
    <glyph glyph-name="Eogonek" unicode="&#x118;" horiz-adv-x="1605" 
d="M1495 0q-230 -90 -230 -228q0 -38 32.5 -56.5t78.5 -18.5q57 0 119 17v-167q-77 -17 -171 -17q-169 0 -256.5 51.5t-87.5 152.5q0 28 15.5 63t44.5 72.5t78.5 73t111.5 57.5h-1077v1462h1316v-246h-1021v-338h988v-236h-988v-396h1047v-246z" />
    <glyph glyph-name="eogonek" unicode="&#x119;" horiz-adv-x="1466" 
d="M1391 551q0 -21 -5 -73h-1011q15 -151 109.5 -225.5t258.5 -74.5q79 0 139.5 16t96 42t54.5 53t26 56h318q-15 -116 -99.5 -210.5t-249.5 -139.5q-223 -85 -223 -223q0 -37 32.5 -56t73.5 -19q61 0 123 17v-167q-77 -17 -171 -17q-324 0 -324 204q0 53 39.5 119
t118.5 110q-297 12 -459.5 166.5t-162.5 421.5q0 277 174 433t484 156t484 -156t174 -433zM733 925q-140 0 -230 -60.5t-118 -180.5h696q-28 120 -118 180.5t-230 60.5z" />
    <glyph glyph-name="Ecaron" unicode="&#x11a;" horiz-adv-x="1605" 
d="M960 1896h328l-292 -314h-370l-292 314h329l144 -171h9zM448 1216v-338h988v-236h-988v-396h1047v-246h-1342v1462h1316v-246h-1021z" />
    <glyph glyph-name="ecaron" unicode="&#x11b;" horiz-adv-x="1466" 
d="M918 1219h-370l-292 314h328l144 -171h9l144 171h329zM1391 551q0 -21 -5 -73h-1011q15 -151 109.5 -225.5t258.5 -74.5q79 0 139.5 16t96 42t54.5 53t26 56h318q-8 -59 -31.5 -111.5t-72.5 -103t-118.5 -87t-175 -58.5t-236.5 -22q-317 0 -492.5 155t-175.5 433
q0 277 174 433t484 156t484 -156t174 -433zM733 925q-140 0 -230 -60.5t-118 -180.5h696q-28 120 -118 180.5t-230 60.5z" />
    <glyph glyph-name="Gcircumflex" unicode="&#x11c;" horiz-adv-x="1902" 
d="M1107 1582l-143 171h-10l-143 -171h-329l292 314h370l292 -314h-329zM1760 786v-786h-236v208q-186 -247 -562 -247q-192 0 -351 48t-277 141.5t-183.5 241.5t-65.5 339q0 153 42 279t118 216.5t183 152.5t237 92t281 30q189 0 338 -40t245.5 -112t151.5 -166t68 -207
h-339q-9 40 -27 76t-53.5 73.5t-85 64.5t-126.5 44t-172 17q-119 0 -217 -32.5t-170 -96t-112 -163.5t-40 -228q0 -130 40 -230t114 -163.5t175 -96t226 -32.5q212 0 325 96t134 255h-436v226h775z" />
    <glyph glyph-name="gcircumflex" unicode="&#x11d;" horiz-adv-x="1497" 
d="M868 1219l-143 171h-9l-144 -171h-329l292 314h370l292 -314h-329zM1082 1103h283v-1054q0 -91 -14.5 -157t-55 -125.5t-109.5 -96.5t-180.5 -58.5t-265.5 -21.5q-106 0 -194.5 11.5t-151.5 31.5t-111.5 49.5t-79 61.5t-50 72t-27.5 77t-10 79h314q3 -29 17 -55t45.5 -53
t95 -43t152.5 -16q102 0 169.5 16.5t103 50.5t49 75.5t13.5 101.5v187h-9q-66 -75 -172.5 -121t-237.5 -46q-263 0 -422 140t-159 390t159 390.5t422 140.5q135 0 242.5 -46.5t173.5 -128.5h10v148zM725 296q166 0 260.5 82t94.5 221t-94.5 221.5t-260.5 82.5
q-167 0 -258.5 -77.5t-91.5 -226.5t91.5 -226t258.5 -77z" />
    <glyph glyph-name="Gbreve" unicode="&#x11e;" horiz-adv-x="1902" 
d="M1371 1895q-1 -66 -25 -121t-64 -92.5t-94 -63.5t-115 -38t-127 -12q-84 0 -158 19.5t-133.5 58t-95.5 103t-37 146.5h246q15 -123 178 -123t178 123h247zM1760 786v-786h-236v208q-186 -247 -562 -247q-192 0 -351 48t-277 141.5t-183.5 241.5t-65.5 339q0 153 42 279
t118 216.5t183 152.5t237 92t281 30q189 0 338 -40t245.5 -112t151.5 -166t68 -207h-339q-9 40 -27 76t-53.5 73.5t-85 64.5t-126.5 44t-172 17q-119 0 -217 -32.5t-170 -96t-112 -163.5t-40 -228q0 -130 40 -230t114 -163.5t175 -96t226 -32.5q212 0 325 96t134 255h-436
v226h775z" />
    <glyph glyph-name="gbreve" unicode="&#x11f;" horiz-adv-x="1497" 
d="M1144 1532q-1 -82 -37 -146.5t-95.5 -103t-133.5 -58t-158 -19.5q-66 0 -127 12t-115 38t-94 63.5t-64 92.5t-25 121h246q15 -123 179 -123q163 0 178 123h246zM1082 1103h283v-1054q0 -91 -14.5 -157t-55 -125.5t-109.5 -96.5t-180.5 -58.5t-265.5 -21.5
q-106 0 -194.5 11.5t-151.5 31.5t-111.5 49.5t-79 61.5t-50 72t-27.5 77t-10 79h314q3 -29 17 -55t45.5 -53t95 -43t152.5 -16q102 0 169.5 16.5t103 50.5t49 75.5t13.5 101.5v187h-9q-66 -75 -172.5 -121t-237.5 -46q-263 0 -422 140t-159 390t159 390.5t422 140.5
q135 0 242.5 -46.5t173.5 -128.5h10v148zM725 296q166 0 260.5 82t94.5 221t-94.5 221.5t-260.5 82.5q-167 0 -258.5 -77.5t-91.5 -226.5t91.5 -226t258.5 -77z" />
    <glyph glyph-name="Gdotaccent" unicode="&#x120;" horiz-adv-x="1902" 
d="M797 1595v215h298v-215h-298zM1760 786v-786h-236v208q-186 -247 -562 -247q-192 0 -351 48t-277 141.5t-183.5 241.5t-65.5 339q0 153 42 279t118 216.5t183 152.5t237 92t281 30q189 0 338 -40t245.5 -112t151.5 -166t68 -207h-339q-9 40 -27 76t-53.5 73.5t-85 64.5
t-126.5 44t-172 17q-119 0 -217 -32.5t-170 -96t-112 -163.5t-40 -228q0 -130 40 -230t114 -163.5t175 -96t226 -32.5q212 0 325 96t134 255h-436v226h775z" />
    <glyph glyph-name="gdotaccent" unicode="&#x121;" horiz-adv-x="1497" 
d="M571 1276v215h298v-215h-298zM1082 1103h283v-1054q0 -91 -14.5 -157t-55 -125.5t-109.5 -96.5t-180.5 -58.5t-265.5 -21.5q-106 0 -194.5 11.5t-151.5 31.5t-111.5 49.5t-79 61.5t-50 72t-27.5 77t-10 79h314q3 -29 17 -55t45.5 -53t95 -43t152.5 -16q102 0 169.5 16.5
t103 50.5t49 75.5t13.5 101.5v187h-9q-66 -75 -172.5 -121t-237.5 -46q-263 0 -422 140t-159 390t159 390.5t422 140.5q135 0 242.5 -46.5t173.5 -128.5h10v148zM725 296q166 0 260.5 82t94.5 221t-94.5 221.5t-260.5 82.5q-167 0 -258.5 -77.5t-91.5 -226.5t91.5 -226
t258.5 -77z" />
    <glyph glyph-name="Gcommaaccent" unicode="&#x122;" horiz-adv-x="1902" 
d="M1760 786v-786h-236v208q-186 -247 -562 -247q-192 0 -351 48t-277 141.5t-183.5 241.5t-65.5 339q0 153 42 279t118 216.5t183 152.5t237 92t281 30q189 0 338 -40t245.5 -112t151.5 -166t68 -207h-339q-9 40 -27 76t-53.5 73.5t-85 64.5t-126.5 44t-172 17
q-119 0 -217 -32.5t-170 -96t-112 -163.5t-40 -228q0 -130 40 -230t114 -163.5t175 -96t226 -32.5q212 0 325 96t134 255h-436v226h775zM1113 -130v-162q0 -61 -6 -100.5t-23.5 -75t-50.5 -55t-86 -30.5t-130 -12v91q81 1 108 31.5t27 97.5h-137v215h298z" />
    <glyph glyph-name="gcommaaccent" unicode="&#x123;" horiz-adv-x="1497" 
d="M571 1278v157q0 80 13 131.5t46 88t90.5 52.5t146.5 17v-91q-78 -1 -106.5 -35t-28.5 -105h137v-215h-298zM1082 1103h283v-1054q0 -91 -14.5 -157t-55 -125.5t-109.5 -96.5t-180.5 -58.5t-265.5 -21.5q-106 0 -194.5 11.5t-151.5 31.5t-111.5 49.5t-79 61.5t-50 72
t-27.5 77t-10 79h314q3 -29 17 -55t45.5 -53t95 -43t152.5 -16q102 0 169.5 16.5t103 50.5t49 75.5t13.5 101.5v187h-9q-66 -75 -172.5 -121t-237.5 -46q-263 0 -422 140t-159 390t159 390.5t422 140.5q135 0 242.5 -46.5t173.5 -128.5h10v148zM725 296q166 0 260.5 82
t94.5 221t-94.5 221.5t-260.5 82.5q-167 0 -258.5 -77.5t-91.5 -226.5t91.5 -226t258.5 -77z" />
    <glyph glyph-name="Hcircumflex" unicode="&#x124;" horiz-adv-x="1818" 
d="M1071 1582l-143 171h-9l-144 -171h-329l292 314h370l292 -314h-329zM1370 1462h295v-1462h-295v626l-922 -1v-625h-295v1462h295v-586h922v586z" />
    <glyph glyph-name="hcircumflex" unicode="&#x125;" 
d="M439 1582l-144 171h-9l-144 -171h-329l292 314h370l292 -314h-328zM868 1130q104 0 189.5 -23.5t150.5 -70.5t101 -124.5t36 -179.5v-732h-290v634q0 137 -74 198.5t-218 61.5q-64 0 -122 -17.5t-108.5 -53.5t-80.5 -101t-30 -151v-571h-290v1483h290v-521h9
q153 168 437 168z" />
    <glyph glyph-name="Hbar" unicode="&#x126;" horiz-adv-x="1822" 
d="M1819 1273v-211h-152v-1062h-295v625h-922v-625h-294v1062h-152v211h152v189h294v-189h922v189h295v-189h152zM1372 876v186h-922v-186h922z" />
    <glyph glyph-name="hbar" unicode="&#x127;" horiz-adv-x="1497" 
d="M887 1130q104 0 189.5 -23.5t150.5 -70.5t101 -124.5t36 -179.5v-732h-290v634q0 137 -74 198.5t-218 61.5q-64 0 -122 -17.5t-108.5 -53.5t-80.5 -101t-30 -151v-571h-290v1201h-151v170h151v112h290v-112h315v-170h-315v-239h9q153 168 437 168z" />
    <glyph glyph-name="Itilde" unicode="&#x128;" horiz-adv-x="1224" 
d="M816 1554q-59 0 -135.5 30t-143.5 59.5t-103 29.5q-34 0 -48 -21t-13 -77h-220q0 86 22.5 149.5t61 97.5t81 50t90.5 16q59 0 135.5 -30t143.5 -59.5t103 -29.5q34 0 48 21.5t13 75.5h220q0 -86 -22.5 -149.5t-61 -97.5t-81 -49.5t-90.5 -15.5zM761 0h-295v1462h295
v-1462z" />
    <glyph glyph-name="itilde" unicode="&#x129;" horiz-adv-x="555" 
d="M480 1190q-59 0 -135.5 30t-143.5 59.5t-103 29.5q-34 0 -48 -21t-13 -77h-220q0 86 22.5 149.5t61 97.5t81 50t90.5 16q59 0 135.5 -30t143.5 -59.5t103 -29.5q34 0 48 21.5t13 75.5h220q0 -86 -22.5 -149.5t-61 -97.5t-81 -49.5t-90.5 -15.5zM132 0v1103h290v-1103
h-290z" />
    <glyph glyph-name="Imacron" unicode="&#x12a;" horiz-adv-x="1118" 
d="M966 1601h-813v198h813v-198zM707 0h-295v1462h295v-1462z" />
    <glyph glyph-name="imacron" unicode="&#x12b;" horiz-adv-x="555" 
d="M684 1271h-813v198h813v-198zM132 0v1103h290v-1103h-290z" />
    <glyph glyph-name="Ibreve" unicode="&#x12c;" horiz-adv-x="1155" 
d="M1002 1895q-1 -82 -37 -146.5t-95.5 -103t-133.5 -58t-158 -19.5q-66 0 -127 12t-115 38t-94 63.5t-64 92.5t-25 121h246q15 -123 179 -123q163 0 178 123h246zM725 0h-295v1462h295v-1462z" />
    <glyph glyph-name="ibreve" unicode="&#x12d;" horiz-adv-x="555" 
d="M702 1532q-1 -66 -25 -121t-64 -92.5t-94 -63.5t-115 -38t-127 -12t-127 12t-115 38t-94 63.5t-64 92.5t-25 121h246q15 -123 179 -123q163 0 178 123h247zM132 0v1103h290v-1103h-290z" />
    <glyph glyph-name="Iogonek" unicode="&#x12e;" horiz-adv-x="821" 
d="M668 0q-230 -90 -230 -228q0 -38 32.5 -56.5t78.5 -18.5q57 0 119 17v-167q-77 -17 -172 -17q-343 0 -343 204q0 28 15.5 63t44.5 72.5t78.5 73t111.5 57.5h-30v1462h295v-1462z" />
    <glyph glyph-name="iogonek" unicode="&#x12f;" horiz-adv-x="555" 
d="M128 1491h298v-215h-298v215zM132 0v1103h290v-1103q-229 -89 -229 -228q0 -38 32 -56.5t78 -18.5q57 0 119 17v-167q-77 -17 -171 -17q-343 0 -343 204q0 28 15.5 63t44.5 72.5t78.5 73t111.5 57.5h-26z" />
    <glyph glyph-name="Idotaccent" unicode="&#x130;" horiz-adv-x="604" 
d="M153 1595v215h298v-215h-298zM450 0h-295v1462h295v-1462z" />
    <glyph glyph-name="dotlessi" unicode="&#x131;" horiz-adv-x="555" 
d="M132 0v1103h290v-1103h-290z" />
    <glyph glyph-name="IJ" unicode="&#x132;" horiz-adv-x="2217" 
d="M448 0h-295v1462h295v-1462zM2065 1462v-887q0 -130 -34 -233.5t-95 -174t-149.5 -117.5t-194 -68t-232.5 -21q-160 0 -285.5 34.5t-220 106.5t-145 191.5t-50.5 281.5v130h295v-132q0 -185 108.5 -273t297.5 -88q191 0 300.5 88t109.5 273v889h295z" />
    <glyph glyph-name="ij" unicode="&#x133;" horiz-adv-x="1110" 
d="M128 1276v215h298v-215h-298zM683 1276v215h298v-215h-298zM132 0v1103h290v-1103h-290zM555 -168q69 0 100.5 24t31.5 91v1156h290v-1225q0 -161 -81 -224.5t-284 -63.5q-93 0 -173 12v239q50 -9 116 -9z" />
    <glyph glyph-name="Jcircumflex" unicode="&#x134;" horiz-adv-x="1959" 
d="M1478 1582l-144 171h-9l-144 -171h-329l292 314h370l292 -314h-328zM1464 1462v-887q0 -162 -51.5 -282t-147 -191.5t-222 -106t-285.5 -34.5q-160 0 -285.5 34.5t-219.5 106.5t-144.5 191.5t-50.5 281.5v130h295v-132q0 -185 108 -273t297 -88q191 0 301 88t110 273v889
h295z" />
    <glyph glyph-name="jcircumflex" unicode="&#x135;" horiz-adv-x="966" 
d="M509 1219l-143 171h-9l-144 -171h-329l292 314h370l292 -314h-329zM84 -168q69 0 100.5 24t31.5 91v1156h290v-1225q0 -161 -81 -224.5t-284 -63.5q-93 0 -173 12v239q50 -9 116 -9z" />
    <glyph glyph-name="Kcommaaccent" unicode="&#x136;" horiz-adv-x="1740" 
d="M1041 956l677 -956h-364l-535 764l-371 -322v-442h-295v1462h295v-696l783 696h391zM1051 -130v-162q0 -61 -6 -100.5t-23.5 -75t-50.5 -55t-86 -30.5t-130 -12v91q81 1 108 31.5t27 97.5h-137v215h298z" />
    <glyph glyph-name="kcommaaccent" unicode="&#x137;" horiz-adv-x="1347" 
d="M802 683l527 -683h-352l-380 505l-175 -152v-353h-290v1483h290v-821l497 441h364zM849 -130v-162q0 -76 -10 -122t-41 -82.5t-90.5 -52t-155.5 -16.5v91q81 1 108.5 32t27.5 97h-137v215h298z" />
    <glyph glyph-name="kgreenlandic" unicode="&#x138;" horiz-adv-x="1347" 
d="M802 683l527 -683h-352l-380 505l-175 -152v-353h-290v1103h290v-441l497 441h364z" />
    <glyph glyph-name="Lacute" unicode="&#x139;" horiz-adv-x="1566" 
d="M768 1896l-340 -314h-252l182 314h410zM1492 0h-1339v1462h295v-1212h1044v-250z" />
    <glyph glyph-name="lacute" unicode="&#x13a;" horiz-adv-x="876" 
d="M745 1896l-340 -314h-253l183 314h410zM132 0v1483h290v-1483h-290z" />
    <glyph glyph-name="Lcommaaccent" unicode="&#x13b;" horiz-adv-x="1566" 
d="M1492 0h-1339v1462h295v-1212h1044v-250zM972 -130v-162q0 -61 -6 -100.5t-23.5 -75t-50.5 -55t-86 -30.5t-130 -12v91q81 1 108 31.5t27 97.5h-137v215h298z" />
    <glyph glyph-name="lcommaaccent" unicode="&#x13c;" horiz-adv-x="563" 
d="M136 0v1483h290v-1483h-290zM431 -130v-162q0 -76 -10 -122t-41 -82.5t-90.5 -52t-155.5 -16.5v91q81 1 108 31.5t27 97.5h-137v215h299z" />
    <glyph glyph-name="Lcaron" unicode="&#x13d;" horiz-adv-x="1566" 
d="M1016 1483v-201q0 -207 -72 -294.5t-240 -89.5v109q83 2 116.5 50.5t33.5 166.5h-151v259h313zM1492 0h-1339v1462h295v-1212h1044v-250z" />
    <glyph glyph-name="lcaron" unicode="&#x13e;" horiz-adv-x="794" 
d="M132 0v1483h290v-1483h-290zM791 1483v-183q0 -157 -56.5 -229t-211.5 -73v108q76 1 100.5 32t24.5 105h-125v240h268z" />
    <glyph glyph-name="Ldot" unicode="&#x13f;" horiz-adv-x="1566" 
d="M1492 0h-1339v1462h296v-1212h1043v-250zM975 633q-77 0 -130 53.5t-53 129.5t53 129.5t130 53.5t130 -53.5t53 -129.5t-53 -129.5t-130 -53.5z" />
    <glyph glyph-name="ldot" unicode="&#x140;" horiz-adv-x="966" 
d="M132 0v1483h290v-1483h-290zM708 567q-76 0 -129.5 53.5t-53.5 129.5q0 77 53.5 130.5t129.5 53.5t129.5 -53.5t53.5 -130.5q0 -76 -53.5 -129.5t-129.5 -53.5z" />
    <glyph glyph-name="Lslash" unicode="&#x141;" horiz-adv-x="1568" 
d="M449 250h1044v-250h-1339v336l-125 -71v271l125 70v856h295v-699l642 358v-271l-642 -357v-243z" />
    <glyph glyph-name="lslash" unicode="&#x142;" horiz-adv-x="638" 
d="M607 1124v-236l-143 -107v-781h-289v583l-143 -107v237l143 106v664h289v-466z" />
    <glyph glyph-name="Nacute" unicode="&#x143;" horiz-adv-x="1816" 
d="M1376 1896l-340 -314h-253l183 314h410zM1381 1462h282v-1462h-336l-884 1086h-9v-1086h-281v1462h347l872 -1073h9v1073z" />
    <glyph glyph-name="nacute" unicode="&#x144;" 
d="M1202 1533l-340 -314h-253l183 314h410zM416 1103v-141h9q164 168 443 168q104 0 189.5 -23.5t150.5 -70.5t101 -124.5t36 -179.5v-732h-290v634q0 137 -74 198.5t-218 61.5q-64 0 -122 -17.5t-108.5 -53.5t-80.5 -101t-30 -151v-571h-290v1103h284z" />
    <glyph glyph-name="Ncommaaccent" unicode="&#x145;" horiz-adv-x="1816" 
d="M1381 1462h282v-1462h-336l-884 1086h-9v-1086h-281v1462h347l872 -1073h9v1073zM1058 -130v-162q0 -76 -10 -122t-41 -82.5t-90.5 -52t-155.5 -16.5v91q81 1 108 31.5t27 97.5h-137v215h299z" />
    <glyph glyph-name="ncommaaccent" unicode="&#x146;" 
d="M416 1103v-141h9q164 168 443 168q104 0 189.5 -23.5t150.5 -70.5t101 -124.5t36 -179.5v-732h-290v634q0 137 -74 198.5t-218 61.5q-64 0 -122 -17.5t-108.5 -53.5t-80.5 -101t-30 -151v-571h-290v1103h284zM888 -130v-162q0 -76 -10 -122t-41 -82.5t-90.5 -52
t-155.5 -16.5v91q81 1 108.5 32t27.5 97h-137v215h298z" />
    <glyph glyph-name="Ncaron" unicode="&#x147;" horiz-adv-x="1816" 
d="M1057 1896h328l-292 -314h-369l-293 314h329l144 -171h9zM1381 1462h282v-1462h-336l-884 1086h-9v-1086h-281v1462h347l872 -1073h9v1073z" />
    <glyph glyph-name="ncaron" unicode="&#x148;" 
d="M887 1533h329l-292 -314h-370l-292 314h328l144 -171h9zM416 1103v-141h9q164 168 443 168q104 0 189.5 -23.5t150.5 -70.5t101 -124.5t36 -179.5v-732h-290v634q0 137 -74 198.5t-218 61.5q-64 0 -122 -17.5t-108.5 -53.5t-80.5 -101t-30 -151v-571h-290v1103h284z" />
    <glyph glyph-name="napostrophe" unicode="&#x149;" horiz-adv-x="1712" 
d="M297 1483v-183q0 -157 -56.5 -229t-211.5 -73v108q76 1 100.5 32t24.5 105h-125v240h268zM651 1103v-141h9q164 168 444 168q104 0 189.5 -23.5t150.5 -70.5t101 -124.5t36 -179.5v-732h-290v634q0 137 -74 198.5t-219 61.5q-64 0 -121.5 -17.5t-108 -53.5t-80.5 -101
t-30 -151v-571h-290v1103h283z" />
    <glyph glyph-name="Eng" unicode="&#x14a;" horiz-adv-x="1816" 
d="M1381 1462h282v-1443q0 -421 -576 -421q-280 0 -426.5 105.5t-146.5 313.5q0 3 0.5 11.5t0.5 12.5h278v-23q0 -95 75.5 -144.5t216.5 -49.5q133 0 209 44t86 128l-937 1097h-9v-1093h-281v1462h347l872 -1020h9v1020z" />
    <glyph glyph-name="eng" unicode="&#x14b;" 
d="M868 1130q104 0 189.5 -23.5t150.5 -70.5t101 -124.5t36 -179.5v-854q0 -161 -81 -224.5t-284 -63.5q-93 0 -173 12v239q50 -9 116 -9q69 0 100.5 24t31.5 91v687q0 137 -74 198.5t-218 61.5q-64 0 -122 -17.5t-108.5 -53.5t-80.5 -101t-30 -151v-571h-290v1103h284v-141
h9q164 168 443 168z" />
    <glyph glyph-name="Omacron" unicode="&#x14c;" horiz-adv-x="1896" 
d="M1355 1601h-813v198h813v-198zM948 1501q187 0 343 -48t273 -141.5t182.5 -242t65.5 -338.5t-65.5 -338.5t-182.5 -242t-273 -141.5t-343 -48t-343 48t-273 141.5t-182 242t-65 338.5t65.5 338.5t182 242t272.5 141.5t343 48zM948 212q120 0 218.5 32.5t171 95.5
t112.5 163t40 228q0 170 -70.5 289t-190.5 175t-281 56q-120 0 -218 -32.5t-170.5 -96t-112.5 -163.5t-40 -228q0 -170 70 -288.5t190 -174.5t281 -56z" />
    <glyph glyph-name="omacron" unicode="&#x14d;" horiz-adv-x="1488" 
d="M1151 1271h-813v198h813v-198zM744 1140q317 0 493 -155.5t176 -433.5t-176 -433t-493 -155t-493 155t-176 433t176 433.5t493 155.5zM744 192q176 0 272.5 92t96.5 267t-96.5 267.5t-272.5 92.5t-272.5 -92.5t-96.5 -267.5t96.5 -267t272.5 -92z" />
    <glyph glyph-name="Obreve" unicode="&#x14e;" horiz-adv-x="1896" 
d="M1373 1895q-1 -66 -25 -121t-64 -92.5t-94 -63.5t-115 -38t-127 -12q-84 0 -158 19.5t-133.5 58t-95.5 103t-37 146.5h246q15 -123 178 -123q164 0 179 123h246zM948 1501q187 0 343 -48t273 -141.5t182.5 -242t65.5 -338.5t-65.5 -338.5t-182.5 -242t-273 -141.5
t-343 -48t-343 48t-273 141.5t-182 242t-65 338.5t65.5 338.5t182 242t272.5 141.5t343 48zM948 212q120 0 218.5 32.5t171 95.5t112.5 163t40 228q0 170 -70.5 289t-190.5 175t-281 56q-120 0 -218 -32.5t-170.5 -96t-112.5 -163.5t-40 -228q0 -170 70 -288.5t190 -174.5
t281 -56z" />
    <glyph glyph-name="obreve" unicode="&#x14f;" horiz-adv-x="1488" 
d="M1169 1532q-1 -66 -25 -121t-64 -92.5t-94 -63.5t-115 -38t-127 -12t-127 12t-115 38t-94 63.5t-64 92.5t-25 121h246q15 -123 179 -123q163 0 178 123h247zM744 1140q317 0 493 -155.5t176 -433.5t-176 -433t-493 -155t-493 155t-176 433t176 433.5t493 155.5zM744 192
q176 0 272.5 92t96.5 267t-96.5 267.5t-272.5 92.5t-272.5 -92.5t-96.5 -267.5t96.5 -267t272.5 -92z" />
    <glyph glyph-name="Ohungarumlaut" unicode="&#x150;" horiz-adv-x="1896" 
d="M1087 1896l-259 -314h-248l147 314h360zM1575 1896l-258 -314h-249l148 314h359zM948 1501q187 0 343 -48t273 -141.5t182.5 -242t65.5 -338.5t-65.5 -338.5t-182.5 -242t-273 -141.5t-343 -48t-343 48t-273 141.5t-182 242t-65 338.5t65.5 338.5t182 242t272.5 141.5
t343 48zM948 212q120 0 218.5 32.5t171 95.5t112.5 163t40 228q0 170 -70.5 289t-190.5 175t-281 56q-120 0 -218 -32.5t-170.5 -96t-112.5 -163.5t-40 -228q0 -170 70 -288.5t190 -174.5t281 -56z" />
    <glyph glyph-name="ohungarumlaut" unicode="&#x151;" horiz-adv-x="1488" 
d="M882 1531l-258 -314h-249l148 314h359zM1371 1531l-258 -314h-249l148 314h359zM744 1140q317 0 493 -155.5t176 -433.5t-176 -433t-493 -155t-493 155t-176 433t176 433.5t493 155.5zM744 192q176 0 272.5 92t96.5 267t-96.5 267.5t-272.5 92.5t-272.5 -92.5
t-96.5 -267.5t96.5 -267t272.5 -92z" />
    <glyph glyph-name="OE" unicode="&#x152;" horiz-adv-x="2893" 
d="M1772 246h1012v-246h-1294v190h-9q-92 -110 -241 -169.5t-319 -59.5q-141 0 -265.5 29.5t-229.5 92t-180.5 152.5t-118 216.5t-42.5 279.5q0 189 65 338t179.5 242.5t264.5 141.5t327 48q171 0 319.5 -59t240.5 -169h9v189h1268v-246h-986v-338h953v-236h-953v-396z
M948 213q118 0 216 32t171.5 95t114 163t40.5 228q0 129 -40.5 228.5t-114 162.5t-171.5 95t-216 32q-159 0 -278.5 -55t-191 -173.5t-71.5 -289.5q0 -128 40.5 -228t113.5 -163t171 -95t216 -32z" />
    <glyph glyph-name="oe" unicode="&#x153;" horiz-adv-x="2412" 
d="M2337 551q0 -31 -4 -73h-971q14 -151 103 -225.5t243 -74.5q75 0 133 16t91 42t51 53t23 56h318q-7 -59 -29.5 -111t-69.5 -103t-114.5 -87t-171 -58.5t-231.5 -22.5q-344 0 -493 209q-77 -102 -202.5 -155.5t-288.5 -53.5q-309 0 -479 155t-170 433q0 279 170 434
t479 155q162 0 288 -54t203 -156q150 210 485 210q302 0 469.5 -155.5t167.5 -433.5zM1700 925q-132 0 -216.5 -60.5t-111.5 -180.5h656q-27 120 -111.5 180.5t-216.5 60.5zM724 192q166 0 257 92t91 267t-91 267.5t-257 92.5t-257.5 -92.5t-91.5 -267.5t91 -267t258 -92z
" />
    <glyph glyph-name="Racute" unicode="&#x154;" horiz-adv-x="1759" 
d="M1337 1896l-340 -314h-252l182 314h410zM1330 602l372 -602h-339l-347 573h-568v-573h-295v1462h1002q269 0 392.5 -105.5t123.5 -335.5q0 -341 -341 -409v-10zM1119 819q117 0 171.5 47t54.5 148t-54.5 148t-171.5 47h-671v-390h671z" />
    <glyph glyph-name="racute" unicode="&#x155;" horiz-adv-x="1077" 
d="M1025 1533l-339 -314h-253l182 314h410zM132 1103h284v-146h9q157 174 444 174q74 0 122 -14v-284q-87 20 -166 20q-61 0 -115.5 -8.5t-108.5 -31t-92.5 -57.5t-62.5 -92.5t-24 -130.5v-533h-290v1103z" />
    <glyph glyph-name="Rcommaaccent" unicode="&#x156;" horiz-adv-x="1759" 
d="M1330 602l372 -602h-339l-347 573h-568v-573h-295v1462h1002q269 0 392.5 -105.5t123.5 -335.5q0 -341 -341 -409v-10zM1119 819q117 0 171.5 47t54.5 148t-54.5 148t-171.5 47h-671v-390h671zM1055 -130v-162q0 -76 -10 -122t-41 -82.5t-90.5 -52t-155.5 -16.5v91
q81 1 108 31.5t27 97.5h-137v215h299z" />
    <glyph glyph-name="rcommaaccent" unicode="&#x157;" horiz-adv-x="1048" 
d="M136 1103h284v-146h9q157 174 444 174q74 0 122 -14v-284q-87 20 -166 20q-61 0 -115.5 -8.5t-108.5 -31t-92.5 -57.5t-62.5 -92.5t-24 -130.5v-533h-290v1103zM431 -130v-162q0 -76 -10 -122t-41 -82.5t-90.5 -52t-155.5 -16.5v91q81 1 108 31.5t27 97.5h-137v215h299z
" />
    <glyph glyph-name="Rcaron" unicode="&#x158;" horiz-adv-x="1759" 
d="M1018 1896h329l-293 -314h-369l-292 314h328l144 -172h9zM1330 602l372 -602h-339l-347 573h-568v-573h-295v1462h1002q269 0 392.5 -105.5t123.5 -335.5q0 -341 -341 -409v-10zM1119 819q117 0 171.5 47t54.5 148t-54.5 148t-171.5 47h-671v-390h671z" />
    <glyph glyph-name="rcaron" unicode="&#x159;" horiz-adv-x="1138" 
d="M758 1533h328l-292 -314h-369l-293 314h329l144 -171h9zM180 1103h283v-146h9q157 174 444 174q75 0 123 -14v-284q-87 20 -166 20q-61 0 -115.5 -8.5t-108.5 -31t-92.5 -57.5t-62.5 -92.5t-24 -130.5v-533h-290v1103z" />
    <glyph glyph-name="Sacute" unicode="&#x15a;" horiz-adv-x="1652" 
d="M1259 1896l-340 -314h-253l183 314h410zM1205 1019q-3 72 -36.5 123t-93 78t-129.5 38.5t-160 11.5q-172 0 -268 -47.5t-96 -145.5q0 -80 52.5 -115.5t157.5 -48.5l521 -62q96 -12 168.5 -37.5t132.5 -73t92 -125.5t32 -185q0 -104 -36.5 -184t-102.5 -133.5t-163 -87.5
t-212 -49t-256 -15q-136 0 -245.5 15t-207.5 52.5t-164.5 97t-106 152t-42.5 214.5h324q3 -70 28 -123t64 -86t97 -53.5t120.5 -28t140.5 -7.5q200 0 313 55t112 161q-1 50 -17.5 85t-50 56t-72.5 32.5t-95 18.5l-493 63q-96 12 -169 37.5t-132 70t-90 116.5t-31 169
q0 117 52 203.5t147.5 138.5t220 76.5t280.5 24.5q125 0 229.5 -14.5t199 -49.5t160.5 -89t106 -137.5t43 -191.5h-324z" />
    <glyph glyph-name="sacute" unicode="&#x15b;" horiz-adv-x="1376" 
d="M1115 1533l-339 -314h-253l182 314h410zM958 771q-11 162 -307 162q-131 0 -196 -31t-65 -85q0 -50 35 -74t120 -34l400 -47q83 -9 143 -28.5t110.5 -56.5t76.5 -100t26 -151q0 -100 -43.5 -171.5t-127 -113t-194 -60t-255.5 -18.5q-110 0 -199.5 11t-171.5 39t-137.5 73
t-89.5 116.5t-37 165.5h304q3 -56 29 -95t72 -60.5t103 -31t131 -9.5q151 0 228.5 36t77.5 102q0 57 -37 84t-126 39l-382 49q-82 11 -142.5 30t-111.5 54.5t-77.5 94t-26.5 139.5q0 89 42.5 155.5t120 106.5t178 59t223.5 19q100 0 186.5 -12t164 -39.5t132.5 -69.5
t88 -105t35 -143h-300z" />
    <glyph glyph-name="Scircumflex" unicode="&#x15c;" horiz-adv-x="1652" 
d="M953 1582l-144 171h-9l-144 -171h-329l293 314h369l292 -314h-328zM1205 1019q-3 72 -36.5 123t-93 78t-129.5 38.5t-160 11.5q-172 0 -268 -47.5t-96 -145.5q0 -80 52.5 -115.5t157.5 -48.5l521 -62q96 -12 168.5 -37.5t132.5 -73t92 -125.5t32 -185q0 -104 -36.5 -184
t-102.5 -133.5t-163 -87.5t-212 -49t-256 -15q-136 0 -245.5 15t-207.5 52.5t-164.5 97t-106 152t-42.5 214.5h324q3 -70 28 -123t64 -86t97 -53.5t120.5 -28t140.5 -7.5q200 0 313 55t112 161q-1 50 -17.5 85t-50 56t-72.5 32.5t-95 18.5l-493 63q-96 12 -169 37.5t-132 70
t-90 116.5t-31 169q0 117 52 203.5t147.5 138.5t220 76.5t280.5 24.5q125 0 229.5 -14.5t199 -49.5t160.5 -89t106 -137.5t43 -191.5h-324z" />
    <glyph glyph-name="scircumflex" unicode="&#x15d;" horiz-adv-x="1376" 
d="M801 1219l-144 171h-9l-144 -171h-329l292 314h370l292 -314h-328zM958 771q-11 162 -307 162q-131 0 -196 -31t-65 -85q0 -50 35 -74t120 -34l400 -47q83 -9 143 -28.5t110.5 -56.5t76.5 -100t26 -151q0 -100 -43.5 -171.5t-127 -113t-194 -60t-255.5 -18.5
q-110 0 -199.5 11t-171.5 39t-137.5 73t-89.5 116.5t-37 165.5h304q3 -56 29 -95t72 -60.5t103 -31t131 -9.5q151 0 228.5 36t77.5 102q0 57 -37 84t-126 39l-382 49q-82 11 -142.5 30t-111.5 54.5t-77.5 94t-26.5 139.5q0 89 42.5 155.5t120 106.5t178 59t223.5 19
q100 0 186.5 -12t164 -39.5t132.5 -69.5t88 -105t35 -143h-300z" />
    <glyph glyph-name="Scedilla" unicode="&#x15e;" horiz-adv-x="1658" 
d="M1578 430q0 -444 -681 -467l-37 -54q38 6 75 6q247 0 247 -188q0 -109 -90.5 -156t-263.5 -47q-150 0 -254 28v144h9q128 -39 230 -39q56 0 86.5 15t30.5 55q0 69 -117 69q-31 0 -79 -5.5t-66 -11.5h-9v78l71 106q-123 4 -222 22.5t-186.5 57.5t-146.5 98t-94.5 147.5
t-38.5 203.5h324q3 -70 28 -123t64 -86t97 -53.5t120.5 -28t140.5 -7.5q200 0 313 55t112 161q-1 50 -17.5 85t-50 56t-72.5 32.5t-95 18.5l-493 63q-96 12 -169 37.5t-132 70t-90 116.5t-31 169q0 117 52 203.5t147.5 138.5t220 76.5t280.5 24.5q125 0 229.5 -14.5
t199 -49.5t160.5 -89t106 -137.5t43 -191.5h-324q-3 72 -36.5 123t-93 78t-129.5 38.5t-160 11.5q-172 0 -268 -47.5t-96 -145.5q0 -80 52.5 -115.5t157.5 -48.5l521 -62q96 -12 168.5 -37.5t132.5 -73t92 -125.5t32 -185z" />
    <glyph glyph-name="scedilla" unicode="&#x15f;" horiz-adv-x="1376" 
d="M1301 326q0 -180 -137.5 -265t-395.5 -96l-37 -56q37 6 75 6q247 0 247 -188q0 -109 -91 -156t-263 -47q-149 0 -253 28v144h9q128 -39 229 -39q118 0 118 70q0 69 -118 69q-31 0 -79 -5.5t-66 -11.5h-9v78l72 108q-123 5 -217.5 27t-172 67t-120.5 123t-46 186h304
q3 -56 29 -95t72 -60.5t103 -31t131 -9.5q151 0 228.5 36t77.5 102q0 57 -37 84t-126 39l-382 49q-82 11 -142.5 30t-111.5 54.5t-77.5 94t-26.5 139.5q0 89 42.5 155.5t120 106.5t178 59t223.5 19q100 0 186.5 -12t164 -39.5t132.5 -69.5t88 -105t35 -143h-300
q-11 162 -307 162q-131 0 -196 -31t-65 -85q0 -50 35 -74t120 -34l400 -47q83 -9 143 -28.5t110.5 -56.5t76.5 -100t26 -151z" />
    <glyph glyph-name="Scaron" unicode="&#x160;" horiz-adv-x="1652" 
d="M940 1896h328l-292 -314h-369l-293 314h329l144 -171h9zM1205 1019q-3 72 -36.5 123t-93 78t-129.5 38.5t-160 11.5q-172 0 -268 -47.5t-96 -145.5q0 -80 52.5 -115.5t157.5 -48.5l521 -62q96 -12 168.5 -37.5t132.5 -73t92 -125.5t32 -185q0 -104 -36.5 -184
t-102.5 -133.5t-163 -87.5t-212 -49t-256 -15q-136 0 -245.5 15t-207.5 52.5t-164.5 97t-106 152t-42.5 214.5h324q3 -70 28 -123t64 -86t97 -53.5t120.5 -28t140.5 -7.5q200 0 313 55t112 161q-1 50 -17.5 85t-50 56t-72.5 32.5t-95 18.5l-493 63q-96 12 -169 37.5t-132 70
t-90 116.5t-31 169q0 117 52 203.5t147.5 138.5t220 76.5t280.5 24.5q125 0 229.5 -14.5t199 -49.5t160.5 -89t106 -137.5t43 -191.5h-324z" />
    <glyph glyph-name="scaron" unicode="&#x161;" horiz-adv-x="1376" 
d="M801 1533h328l-292 -314h-370l-292 314h329l144 -171h9zM958 771q-11 162 -307 162q-131 0 -196 -31t-65 -85q0 -50 35 -74t120 -34l400 -47q83 -9 143 -28.5t110.5 -56.5t76.5 -100t26 -151q0 -100 -43.5 -171.5t-127 -113t-194 -60t-255.5 -18.5q-110 0 -199.5 11
t-171.5 39t-137.5 73t-89.5 116.5t-37 165.5h304q3 -56 29 -95t72 -60.5t103 -31t131 -9.5q151 0 228.5 36t77.5 102q0 57 -37 84t-126 39l-382 49q-82 11 -142.5 30t-111.5 54.5t-77.5 94t-26.5 139.5q0 89 42.5 155.5t120 106.5t178 59t223.5 19q100 0 186.5 -12
t164 -39.5t132.5 -69.5t88 -105t35 -143h-300z" />
    <glyph glyph-name="uni0162" unicode="&#x162;" horiz-adv-x="1605" 
d="M950 0h-53l-63 -91q38 6 76 6q247 0 247 -188q0 -109 -91 -156t-264 -47q-149 0 -253 28v144h9q128 -39 229 -39q118 0 118 70q0 69 -118 69q-31 0 -79 -5.5t-66 -11.5h-9v78l98 143h-75v1210h-603v252h1500v-252h-603v-1210z" />
    <glyph glyph-name="uni0163" unicode="&#x163;" horiz-adv-x="962" 
d="M636 -85q247 0 247 -188q0 -109 -90.5 -156t-263.5 -47q-150 0 -254 28v144h9q128 -39 230 -39q118 0 118 70q0 69 -118 69q-31 0 -79 -5.5t-66 -11.5h-9v78l91 136q-125 22 -177.5 92t-52.5 207v613h-194v198h194v304h290v-304h308v-198h-308v-564q0 -64 33.5 -90.5
t103.5 -26.5q100 0 168 13v-237q-90 -18 -205 -18l-50 -73q37 6 75 6z" />
    <glyph glyph-name="Tcaron" unicode="&#x164;" horiz-adv-x="1605" 
d="M951 1896h329l-292 -314h-370l-292 314h329l143 -171h10zM1553 1462v-252h-603v-1210h-294v1210h-603v252h1500z" />
    <glyph glyph-name="tcaron" unicode="&#x165;" horiz-adv-x="968" 
d="M896 1683v-183q0 -157 -56.5 -228.5t-211.5 -72.5v108q76 1 100.5 32t24.5 104h-125v240h268zM648 224q100 0 168 13v-237q-92 -18 -210 -18q-214 0 -299.5 69.5t-85.5 240.5v613h-194v198h194v304h290v-304h308v-198h-308v-564q0 -64 33.5 -90.5t103.5 -26.5z" />
    <glyph glyph-name="Tbar" unicode="&#x166;" horiz-adv-x="1605" 
d="M1553 1210h-603v-407h311v-218h-311v-585h-294v585h-312v218h312v407h-603v252h1500v-252z" />
    <glyph glyph-name="tbar" unicode="&#x167;" horiz-adv-x="897" 
d="M819 905h-308v-166h308v-169h-308v-229q0 -64 33.5 -90.5t103.5 -26.5q100 0 168 13v-237q-92 -18 -210 -18q-214 0 -299.5 69.5t-85.5 240.5v278h-194v169h194v166h-194v198h194v304h290v-304h308v-198z" />
    <glyph glyph-name="Utilde" unicode="&#x168;" horiz-adv-x="1810" 
d="M1108 1554q-59 0 -135.5 30t-143 59.5t-102.5 29.5q-34 0 -48 -21t-13 -77h-220q0 86 22.5 149.5t60.5 97.5t80.5 50t90.5 16q59 0 135.5 -30t143.5 -59.5t103 -29.5q34 0 48.5 21.5t13.5 75.5h219q0 -86 -22.5 -149.5t-61 -97.5t-81 -49.5t-90.5 -15.5zM1363 1462h295
v-887q0 -162 -54 -281.5t-155.5 -191.5t-236 -106.5t-306.5 -34.5t-306.5 34.5t-236.5 106.5t-156 191.5t-54 281.5v887h295v-881q0 -192 122 -282.5t336 -90.5t335.5 90.5t121.5 282.5v881z" />
    <glyph glyph-name="utilde" unicode="&#x169;" 
d="M941 1190q-59 0 -135.5 30t-143 59.5t-102.5 29.5q-34 0 -48 -21t-13 -77h-220q0 86 22.5 149.5t61 97.5t81 50t90.5 16q59 0 135.5 -30t143.5 -59.5t103 -29.5q34 0 48 21.5t13 75.5h220q0 -69 -15.5 -124t-40.5 -89.5t-59 -57.5t-68.5 -32t-72.5 -9zM1062 0v140h-9
q-163 -167 -444 -167q-104 0 -189.5 23.5t-150.5 70.5t-101 124.5t-36 179.5v732h290v-634q0 -137 74.5 -199t218.5 -62q64 0 121.5 17.5t108 54t80.5 101.5t30 151v571h290v-1103h-283z" />
    <glyph glyph-name="Umacron" unicode="&#x16a;" horiz-adv-x="1810" 
d="M1312 1601h-813v198h813v-198zM1363 1462h295v-887q0 -162 -54 -281.5t-155.5 -191.5t-236 -106.5t-306.5 -34.5t-306.5 34.5t-236.5 106.5t-156 191.5t-54 281.5v887h295v-881q0 -192 122 -282.5t336 -90.5t335.5 90.5t121.5 282.5v881z" />
    <glyph glyph-name="umacron" unicode="&#x16b;" 
d="M1145 1271h-813v198h813v-198zM1062 0v140h-9q-163 -167 -444 -167q-104 0 -189.5 23.5t-150.5 70.5t-101 124.5t-36 179.5v732h290v-634q0 -137 74.5 -199t218.5 -62q64 0 121.5 17.5t108 54t80.5 101.5t30 151v571h290v-1103h-283z" />
    <glyph glyph-name="Ubreve" unicode="&#x16c;" horiz-adv-x="1810" 
d="M1330 1895q-1 -82 -37 -146.5t-95.5 -103t-133.5 -58t-158 -19.5q-66 0 -127 12t-115 38t-94 63.5t-64 92.5t-25 121h246q15 -123 179 -123q163 0 178 123h246zM1363 1462h295v-887q0 -162 -54 -281.5t-155.5 -191.5t-236 -106.5t-306.5 -34.5t-306.5 34.5t-236.5 106.5
t-156 191.5t-54 281.5v887h295v-881q0 -192 122 -282.5t336 -90.5t335.5 90.5t121.5 282.5v881z" />
    <glyph glyph-name="ubreve" unicode="&#x16d;" 
d="M1163 1532q-1 -66 -25 -121t-64 -92.5t-94 -63.5t-115 -38t-127 -12q-84 0 -158 19.5t-133.5 58t-95.5 103t-37 146.5h246q15 -123 178 -123q164 0 179 123h246zM1062 0v140h-9q-163 -167 -444 -167q-104 0 -189.5 23.5t-150.5 70.5t-101 124.5t-36 179.5v732h290v-634
q0 -137 74.5 -199t218.5 -62q64 0 121.5 17.5t108 54t80.5 101.5t30 151v571h290v-1103h-283z" />
    <glyph glyph-name="Uring" unicode="&#x16e;" horiz-adv-x="1810" 
d="M908 1529q-132 0 -220.5 69t-88.5 183q0 113 88.5 182t220.5 69t220.5 -69t88.5 -182q0 -114 -88.5 -183t-220.5 -69zM908 1681q49 0 82.5 27.5t33.5 72.5t-33.5 72.5t-82.5 27.5t-83 -27.5t-34 -72.5t34 -72.5t83 -27.5zM1363 1462h295v-887q0 -162 -54 -281.5
t-155.5 -191.5t-236 -106.5t-306.5 -34.5t-306.5 34.5t-236.5 106.5t-156 191.5t-54 281.5v887h295v-881q0 -192 122 -282.5t336 -90.5t335.5 90.5t121.5 282.5v881z" />
    <glyph glyph-name="uring" unicode="&#x16f;" 
d="M740 1205q-132 0 -220 69t-88 183t88 182.5t220 68.5t220.5 -69t88.5 -182q0 -114 -88.5 -183t-220.5 -69zM740 1357q49 0 83 27.5t34 72.5t-34 72.5t-83 27.5t-82.5 -27.5t-33.5 -72.5t33.5 -72.5t82.5 -27.5zM1062 0v140h-9q-163 -167 -444 -167q-104 0 -189.5 23.5
t-150.5 70.5t-101 124.5t-36 179.5v732h290v-634q0 -137 74.5 -199t218.5 -62q64 0 121.5 17.5t108 54t80.5 101.5t30 151v571h290v-1103h-283z" />
    <glyph glyph-name="Uhungarumlaut" unicode="&#x170;" horiz-adv-x="1810" 
d="M1044 1896l-259 -314h-248l148 314h359zM1532 1896l-258 -314h-249l148 314h359zM1363 1462h295v-887q0 -162 -54 -281.5t-155.5 -191.5t-236 -106.5t-306.5 -34.5t-306.5 34.5t-236.5 106.5t-156 191.5t-54 281.5v887h295v-881q0 -192 122 -282.5t336 -90.5t335.5 90.5
t121.5 282.5v881z" />
    <glyph glyph-name="uhungarumlaut" unicode="&#x171;" horiz-adv-x="1499" 
d="M877 1531l-259 -314h-248l148 314h359zM1366 1531l-259 -314h-248l148 314h359zM1062 0v140h-9q-163 -167 -444 -167q-104 0 -189.5 23.5t-150.5 70.5t-101 124.5t-36 179.5v732h290v-634q0 -137 74.5 -199t218.5 -62q64 0 121.5 17.5t108 54t80.5 101.5t30 151v571h290
v-1103h-283z" />
    <glyph glyph-name="Uogonek" unicode="&#x172;" horiz-adv-x="1810" 
d="M1363 1462h295v-887q0 -456 -429 -575q-228 -89 -228 -228q0 -38 32 -56.5t78 -18.5q57 0 119 17v-167q-77 -17 -171 -17q-343 0 -343 204q0 49 43 114t124 113q-166 2 -297 37.5t-229.5 107.5t-151 190.5t-52.5 278.5v887h295v-881q0 -192 122 -282.5t336 -90.5
t335.5 90.5t121.5 282.5v881z" />
    <glyph glyph-name="uogonek" unicode="&#x173;" 
d="M1345 0q-230 -90 -230 -228q0 -38 32.5 -56.5t78.5 -18.5q57 0 119 17v-167q-77 -17 -171 -17q-343 0 -343 204q0 63 65.5 143t183.5 123h-18v140h-9q-163 -167 -444 -167q-104 0 -189.5 23.5t-150.5 70.5t-101 124.5t-36 179.5v732h290v-634q0 -137 74.5 -199t218.5 -62
q64 0 121.5 17.5t108 54t80.5 101.5t30 151v571h290v-1103z" />
    <glyph glyph-name="Wcircumflex" unicode="&#x174;" horiz-adv-x="2299" 
d="M1315 1582l-144 171h-9l-144 -171h-328l292 314h369l293 -314h-329zM1819 0h-350l-314 1086h-9l-318 -1086h-350l-457 1462h321l314 -1098h10l321 1098h331l322 -1098h9l313 1098h316z" />
    <glyph glyph-name="wcircumflex" unicode="&#x175;" horiz-adv-x="2187" 
d="M1247 1219l-144 171h-9l-144 -171h-328l292 314h370l292 -314h-329zM2153 1103l-450 -1103h-311l-288 783h-9l-288 -783h-311l-461 1103h316l301 -784h9l286 777h304l289 -778h9l288 785h316z" />
    <glyph glyph-name="Ycircumflex" unicode="&#x176;" horiz-adv-x="1677" 
d="M1005 1582l-144 171h-9l-143 -171h-329l292 314h370l292 -314h-329zM1669 1462l-682 -923v-539h-296v535l-683 927h355l476 -667l484 667h346z" />
    <glyph glyph-name="ycircumflex" unicode="&#x177;" horiz-adv-x="1415" 
d="M856 1219l-144 171h-9l-144 -171h-329l293 314h369l292 -314h-328zM1390 1103l-560 -1190q-88 -186 -197.5 -254.5t-303.5 -68.5q-112 0 -199 9v246q115 -12 174 -12q72 0 120.5 23.5t77.5 86.5l36 80l-513 1080h323l353 -805h9l357 805h323z" />
    <glyph glyph-name="Ydieresis" unicode="&#x178;" horiz-adv-x="1677" 
d="M438 1595v215h289v-215h-289zM960 1595v215h290v-215h-290zM1669 1462l-682 -923v-539h-296v535l-683 927h355l476 -667l484 667h346z" />
    <glyph glyph-name="Zacute" unicode="&#x179;" horiz-adv-x="1630" 
d="M1298 1896l-340 -314h-252l182 314h410zM1517 1223l-977 -967h981v-256h-1435v240l976 966h-919v256h1374v-239z" />
    <glyph glyph-name="zacute" unicode="&#x17a;" horiz-adv-x="1288" 
d="M1118 1533l-339 -314h-253l182 314h410zM1192 0h-1121v232l709 648h-662v223h1074v-230l-709 -652h709v-221z" />
    <glyph glyph-name="Zdotaccent" unicode="&#x17b;" horiz-adv-x="1630" 
d="M682 1595v215h298v-215h-298zM1517 1223l-977 -967h981v-256h-1435v240l976 966h-919v256h1374v-239z" />
    <glyph glyph-name="zdotaccent" unicode="&#x17c;" horiz-adv-x="1288" 
d="M506 1276v215h298v-215h-298zM1192 0h-1121v232l709 648h-662v223h1074v-230l-709 -652h709v-221z" />
    <glyph glyph-name="Zcaron" unicode="&#x17d;" horiz-adv-x="1630" 
d="M979 1896h329l-293 -314h-369l-292 314h328l144 -171h9zM1517 1223l-977 -967h981v-256h-1435v240l976 966h-919v256h1374v-239z" />
    <glyph glyph-name="zcaron" unicode="&#x17e;" horiz-adv-x="1288" 
d="M803 1533h329l-292 -314h-370l-292 314h329l144 -171h9zM1192 0h-1121v232l709 648h-662v223h1074v-230l-709 -652h709v-221z" />
    <glyph glyph-name="florin" unicode="&#x192;" horiz-adv-x="1138" 
d="M1022 1310q-44 0 -76 -5t-64.5 -19.5t-53.5 -46t-30 -79.5l-43 -227h278v-202h-317l-84 -423q-20 -103 -62 -171.5t-108.5 -106t-144.5 -52.5t-186 -15q-63 0 -119 8v217q63 -9 109 -9q44 0 75.5 5t64 19.5t53.5 46t30 79.5l78 402h-220v202h261l47 247q16 83 47.5 143.5
t74 99.5t102 62t125.5 32t152 9q64 0 120 -8v-217q-63 9 -109 9z" />
    <glyph glyph-name="Oslashacute" unicode="&#x1fe;" horiz-adv-x="1896" 
d="M1505 1896l-404 -314h-301l217 314h488zM1619 1260q193 -201 193 -529q0 -190 -65.5 -338.5t-182.5 -242t-273 -141.5t-343 -48q-325 0 -542 137l-187 -180l-129 104l188 180q-193 201 -193 529q0 190 65.5 338.5t182 242t272.5 141.5t343 48q326 0 543 -137l187 180
l129 -104zM407 731q0 -194 89 -320l786 753q-135 87 -334 87q-120 0 -218 -32.5t-170.5 -96t-112.5 -163.5t-40 -228zM948 212q120 0 218.5 32.5t171 95.5t112.5 163t40 228q0 194 -89 320l-786 -753q133 -86 333 -86z" />
    <glyph glyph-name="oslashacute" unicode="&#x1ff;" horiz-adv-x="1488" 
d="M1207 1533l-339 -314h-253l182 314h410zM1279 943q134 -149 134 -392q0 -278 -176 -433t-493 -155q-266 0 -434 110l-123 -111l-107 80l130 116q-135 150 -135 393q0 278 176 433.5t493 155.5q265 0 435 -111l122 110l107 -80zM375 551q0 -120 47 -202l557 500
q-91 62 -235 62q-176 0 -272.5 -92.5t-96.5 -267.5zM744 192q176 0 272.5 92t96.5 267q0 119 -46 202l-556 -500q91 -61 233 -61z" />
    <glyph glyph-name="Scommaaccent" unicode="&#x218;" horiz-adv-x="1652" 
d="M1205 1019q-3 72 -36.5 123t-93 78t-129.5 38.5t-160 11.5q-172 0 -268 -47.5t-96 -145.5q0 -80 52.5 -115.5t157.5 -48.5l521 -62q96 -12 168.5 -37.5t132.5 -73t92 -125.5t32 -185q0 -104 -36.5 -184t-102.5 -133.5t-163 -87.5t-212 -49t-256 -15q-136 0 -245.5 15
t-207.5 52.5t-164.5 97t-106 152t-42.5 214.5h324q3 -70 28 -123t64 -86t97 -53.5t120.5 -28t140.5 -7.5q200 0 313 55t112 161q-1 50 -17.5 85t-50 56t-72.5 32.5t-95 18.5l-493 63q-96 12 -169 37.5t-132 70t-90 116.5t-31 169q0 117 52 203.5t147.5 138.5t220 76.5
t280.5 24.5q125 0 229.5 -14.5t199 -49.5t160.5 -89t106 -137.5t43 -191.5h-324zM958 -130v-162q0 -76 -10 -122t-41 -82.5t-90.5 -52t-155.5 -16.5v91q81 1 108 31.5t27 97.5h-137v215h299z" />
    <glyph glyph-name="scommaaccent" unicode="&#x219;" horiz-adv-x="1376" 
d="M958 771q-11 162 -307 162q-131 0 -196 -31t-65 -85q0 -50 35 -74t120 -34l400 -47q83 -9 143 -28.5t110.5 -56.5t76.5 -100t26 -151q0 -100 -43.5 -171.5t-127 -113t-194 -60t-255.5 -18.5q-110 0 -199.5 11t-171.5 39t-137.5 73t-89.5 116.5t-37 165.5h304
q3 -56 29 -95t72 -60.5t103 -31t131 -9.5q151 0 228.5 36t77.5 102q0 57 -37 84t-126 39l-382 49q-82 11 -142.5 30t-111.5 54.5t-77.5 94t-26.5 139.5q0 89 42.5 155.5t120 106.5t178 59t223.5 19q100 0 186.5 -12t164 -39.5t132.5 -69.5t88 -105t35 -143h-300zM830 -130
v-162q0 -61 -6 -100.5t-23.5 -75t-50.5 -55t-86 -30.5t-130 -12v91q81 1 108 31.5t27 97.5h-137v215h298z" />
    <glyph glyph-name="uni021A" unicode="&#x21a;" horiz-adv-x="1605" 
d="M1553 1462v-252h-603v-1210h-294v1210h-603v252h1500zM952 -130v-162q0 -61 -6 -100.5t-23.5 -75t-50.5 -55t-86 -30.5t-130 -12v91q81 1 108 31.5t27 97.5h-137v215h298z" />
    <glyph glyph-name="uni021B" unicode="&#x21b;" horiz-adv-x="897" 
d="M648 224q100 0 168 13v-237q-92 -18 -210 -18q-214 0 -299.5 69.5t-85.5 240.5v613h-194v198h194v304h290v-304h308v-198h-308v-564q0 -64 33.5 -90.5t103.5 -26.5zM668 -130v-162q0 -61 -6 -100.5t-23.5 -75t-50.5 -55t-86 -30.5t-130 -12v91q81 1 108 31.5t27 97.5
h-137v215h298z" />
    <glyph glyph-name="uni0237" unicode="&#x237;" horiz-adv-x="555" 
d="M0 -168q69 0 100.5 24t31.5 91v1156h290v-1225q0 -161 -81 -224.5t-284 -63.5q-93 0 -173 12v239q50 -9 116 -9z" />
    <glyph glyph-name="uni02BC" unicode="&#x2bc;" horiz-adv-x="620" 
d="M467 1483v-201q0 -207 -72 -294.5t-240 -89.5v109q82 1 115.5 49.5t33.5 167.5h-151v259h314z" />
    <glyph glyph-name="circumflex" unicode="&#x2c6;" horiz-adv-x="1259" 
d="M779 1217l-144 172h-9l-144 -172h-329l292 314h370l292 -314h-328z" />
    <glyph glyph-name="caron" unicode="&#x2c7;" horiz-adv-x="1259" 
d="M779 1531h328l-292 -314h-370l-292 314h329l144 -171h9z" />
    <glyph glyph-name="breve" unicode="&#x2d8;" horiz-adv-x="1155" 
d="M1002 1531q-1 -82 -37 -146.5t-95.5 -103t-133.5 -58t-158 -19.5q-66 0 -127 12t-115 38t-94 63.5t-64 92.5t-25 121h246q15 -124 179 -124q163 0 178 124h246z" />
    <glyph glyph-name="dotaccent" unicode="&#x2d9;" horiz-adv-x="604" 
d="M153 1276v215h298v-215h-298z" />
    <glyph glyph-name="ring" unicode="&#x2da;" horiz-adv-x="923" 
d="M462 1205q-132 0 -220.5 69t-88.5 183q0 113 88.5 182t220.5 69t220.5 -69t88.5 -182q0 -114 -88.5 -183t-220.5 -69zM462 1357q49 0 83 27.5t34 72.5t-34 72.5t-83 27.5t-83 -27.5t-34 -72.5t34 -72.5t83 -27.5z" />
    <glyph glyph-name="ogonek" unicode="&#x2db;" horiz-adv-x="821" 
d="M549 -303q57 0 119 17v-167q-77 -17 -172 -17q-343 0 -343 204q0 34 21.5 75.5t61 84t107 78t148.5 51.5l177 -23q-230 -90 -230 -228q0 -38 32.5 -56.5t78.5 -18.5z" />
    <glyph glyph-name="tilde" unicode="&#x2dc;" horiz-adv-x="1224" 
d="M816 1190q-59 0 -135.5 30t-143.5 59.5t-103 29.5q-34 0 -48 -21t-13 -77h-220q0 86 22.5 149.5t61 97.5t81 50t90.5 16q59 0 135.5 -30t143.5 -59.5t103 -29.5q34 0 48 21.5t13 75.5h220q0 -86 -22.5 -149.5t-61 -97.5t-81 -49.5t-90.5 -15.5z" />
    <glyph glyph-name="hungarumlaut" unicode="&#x2dd;" horiz-adv-x="1302" 
d="M660 1531l-258 -314h-249l148 314h359zM1149 1531l-258 -314h-249l148 314h359z" />
    <glyph glyph-name="uni0326" unicode="&#x326;" horiz-adv-x="0" 
d="M-153 -130v-162q0 -76 -10 -122t-41 -82.5t-90.5 -52t-155.5 -16.5v91q81 1 108.5 32t27.5 97h-137v215h298z" />
    <glyph glyph-name="Wgrave" unicode="&#x1e80;" horiz-adv-x="2299" 
d="M690 1896h410l183 -314h-253zM1819 0h-350l-314 1086h-9l-318 -1086h-350l-457 1462h321l314 -1098h10l321 1098h331l322 -1098h9l313 1098h316z" />
    <glyph glyph-name="wgrave" unicode="&#x1e81;" horiz-adv-x="2187" 
d="M634 1533h410l183 -314h-253zM2153 1103l-450 -1103h-311l-288 783h-9l-288 -783h-311l-461 1103h316l301 -784h9l286 777h304l289 -778h9l288 785h316z" />
    <glyph glyph-name="Wacute" unicode="&#x1e82;" horiz-adv-x="2299" 
d="M1621 1896l-340 -314h-252l182 314h410zM1819 0h-350l-314 1086h-9l-318 -1086h-350l-457 1462h321l314 -1098h10l321 1098h331l322 -1098h9l313 1098h316z" />
    <glyph glyph-name="wacute" unicode="&#x1e83;" horiz-adv-x="2187" 
d="M1562 1533l-340 -314h-253l183 314h410zM2153 1103l-450 -1103h-311l-288 783h-9l-288 -783h-311l-461 1103h316l301 -784h9l286 777h304l289 -778h9l288 785h316z" />
    <glyph glyph-name="Wdieresis" unicode="&#x1e84;" horiz-adv-x="2299" 
d="M748 1595v215h289v-215h-289zM1270 1595v215h290v-215h-290zM1819 0h-350l-314 1086h-9l-318 -1086h-350l-457 1462h321l314 -1098h10l321 1098h331l322 -1098h9l313 1098h316z" />
    <glyph glyph-name="wdieresis" unicode="&#x1e85;" horiz-adv-x="2187" 
d="M693 1278v215h289v-215h-289zM1215 1278v215h290v-215h-290zM2153 1103l-450 -1103h-311l-288 783h-9l-288 -783h-311l-461 1103h316l301 -784h9l286 777h304l289 -778h9l288 785h316z" />
    <glyph glyph-name="Ygrave" unicode="&#x1ef2;" horiz-adv-x="1677" 
d="M380 1896h410l183 -314h-253zM1669 1462l-682 -923v-539h-296v535l-683 927h355l476 -667l484 667h346z" />
    <glyph glyph-name="ygrave" unicode="&#x1ef3;" horiz-adv-x="1415" 
d="M243 1533h410l182 -314h-253zM1390 1103l-560 -1190q-88 -186 -197.5 -254.5t-303.5 -68.5q-112 0 -199 9v246q115 -12 174 -12q72 0 120.5 23.5t77.5 86.5l36 80l-513 1080h323l353 -805h9l357 805h323z" />
    <glyph glyph-name="uni2007" unicode="&#x2007;" horiz-adv-x="638" 
 />
    <glyph glyph-name="uni2008" unicode="&#x2008;" horiz-adv-x="520" 
 />
    <glyph glyph-name="uni200B" unicode="&#x200b;" horiz-adv-x="0" 
 />
    <glyph glyph-name="endash" unicode="&#x2013;" horiz-adv-x="1331" 
d="M1253 477h-1175v221h1175v-221z" />
    <glyph glyph-name="emdash" unicode="&#x2014;" horiz-adv-x="1751" 
d="M1679 477h-1607v221h1607v-221z" />
    <glyph glyph-name="quoteleft" unicode="&#x2018;" horiz-adv-x="481" 
d="M85 818v221q0 225 74.5 323t237.5 100v-120q-69 -2 -101 -57t-32 -182h134v-285h-313z" />
    <glyph glyph-name="quoteright" unicode="&#x2019;" horiz-adv-x="483" 
d="M398 1462v-221q0 -225 -74.5 -323t-237.5 -100v120q69 2 101 57t32 182h-134v285h313z" />
    <glyph glyph-name="quotesinglbase" unicode="&#x201a;" horiz-adv-x="483" 
d="M398 285v-221q0 -225 -74.5 -323t-237.5 -100v120q69 2 101 57t32 182h-134v285h313z" />
    <glyph glyph-name="quotedblleft" unicode="&#x201c;" horiz-adv-x="962" 
d="M85 818v221q0 225 74.5 323t237.5 100v-120q-69 -2 -101 -57t-32 -182h134v-285h-313zM566 818v221q0 225 74.5 323t237.5 100v-120q-69 -2 -101 -57t-32 -182h135v-285h-314z" />
    <glyph glyph-name="quotedblright" unicode="&#x201d;" horiz-adv-x="964" 
d="M398 1462v-221q0 -225 -74.5 -323t-237.5 -100v120q69 2 101 57t32 182h-134v285h313zM880 1462v-221q0 -225 -74.5 -323t-237.5 -100v120q69 2 101 57t32 182h-135v285h314z" />
    <glyph glyph-name="quotedblbase" unicode="&#x201e;" horiz-adv-x="964" 
d="M398 285v-221q0 -225 -74.5 -323t-237.5 -100v120q69 2 101 57t32 182h-134v285h313zM880 285v-221q0 -225 -74.5 -323t-237.5 -100v120q69 2 101 57t32 182h-135v285h314z" />
    <glyph glyph-name="dagger" unicode="&#x2020;" horiz-adv-x="1325" 
d="M1253 1032v-234h-453v-1178h-275v1178h-453v234h453v430h275v-430h453z" />
    <glyph glyph-name="daggerdbl" unicode="&#x2021;" horiz-adv-x="1325" 
d="M1253 802h-453v-522h453v-230h-453v-430h-275v430h-453v230h453v522h-453v230h453v430h275v-430h453v-230z" />
    <glyph glyph-name="bullet" unicode="&#x2022;" horiz-adv-x="948" 
d="M474 342q-161 0 -275 114t-114 275t114 275t275 114t275 -114t114 -275t-114 -275t-275 -114z" />
    <glyph glyph-name="ellipsis" unicode="&#x2026;" horiz-adv-x="1933" 
d="M153 0v308h338v-308h-338zM798 0v308h338v-308h-338zM1442 0v308h339v-308h-339z" />
    <glyph glyph-name="perthousand" unicode="&#x2030;" horiz-adv-x="3129" 
d="M492 1462q205 0 312.5 -106t107.5 -307t-107.5 -307t-312.5 -106t-312.5 106t-107.5 307t107.5 307t312.5 106zM1412 1435h223l-876 -1435h-223zM492 811q198 0 198 238q0 237 -198 237q-197 0 -197 -237q0 -238 197 -238zM1678 798q205 0 312.5 -106t107.5 -307
t-107.5 -307.5t-312.5 -106.5t-312 106.5t-107 307.5t107 307t312 106zM2637 798q205 0 312.5 -106t107.5 -307t-107.5 -307.5t-312.5 -106.5t-312.5 106.5t-107.5 307.5t107.5 307t312.5 106zM1678 147q198 0 198 238q0 237 -198 237q-197 0 -197 -237q0 -238 197 -238z
M2637 147q197 0 197 238q0 237 -197 237t-197 -237q0 -238 197 -238z" />
    <glyph glyph-name="guilsinglleft" unicode="&#x2039;" horiz-adv-x="563" 
d="M90 720l383 317v-290l-228 -184v-8l228 -184v-291l-383 317v323z" />
    <glyph glyph-name="guilsinglright" unicode="&#x203a;" horiz-adv-x="559" 
d="M473 720v-323l-383 -317v291l228 184v8l-228 184v290z" />
    <glyph glyph-name="uni2070" unicode="&#x2070;" horiz-adv-x="1148" 
d="M574 1479q242 0 366 -115t124 -331q0 -215 -124 -330.5t-366 -115.5q-241 0 -365 115.5t-124 330.5q0 216 124 331t365 115zM574 747q277 0 277 286q0 287 -277 287q-276 0 -276 -287q0 -286 276 -286z" />
    <glyph glyph-name="franc" unicode="&#x20a3;" horiz-adv-x="1789" 
d="M158 0v1434h1291v-246h-1000v-315h940q155 0 244.5 -78t89.5 -214q0 -182 -181 -243v-9l202 -329h-285l-178 288h-288v-288h-255v643h-289v-643h-291zM993 664v-185h336q103 0 103 92q0 47 -27.5 70t-75.5 23h-336z" />
    <glyph glyph-name="Euro" unicode="&#x20ac;" horiz-adv-x="1681" 
d="M588 516q50 -146 172 -221.5t291 -75.5q243 0 459 155v-293q-194 -104 -459 -104q-199 0 -359 58.5t-272 181t-152 299.5h-205l90 139h96q-2 20 -2 62q0 45 2 67h-184l89 135h114q41 177 153 299t271.5 180t358.5 58q165 0 310 -45.5t245 -131.5l-149 -204
q-181 139 -406 139q-169 0 -291 -74.5t-171 -220.5h729l-91 -135h-669q-2 -22 -2 -67q0 -42 2 -62h574l-87 -139h-457z" />
    <glyph glyph-name="uni2116" unicode="&#x2116;" horiz-adv-x="2914" 
d="M2331 1486q208 0 319 -93.5t111 -264.5t-111 -265t-319 -94t-318.5 94t-110.5 265t110.5 264.5t318.5 93.5zM1382 1462h283v-1462h-337l-883 1086h-9v-1086h-283l2 1462h346l872 -1073h9v1073zM2331 929q100 0 154 52t54 147q0 96 -54 147.5t-154 51.5t-153.5 -51.5
t-53.5 -147.5q0 -95 53.5 -147t153.5 -52zM1902 210h859v-210h-859v210z" />
    <glyph glyph-name="trademark" unicode="&#x2122;" horiz-adv-x="1970" 
d="M848 1462v-157h-296v-576h-182v576h-298v157h776zM1899 1462v-733h-184v550h-9l-215 -550h-150l-221 560h-9v-560h-173v733h293l182 -487h9l178 487h299z" />
    <glyph glyph-name="uni2126" unicode="&#x2126;" horiz-adv-x="1929" 
d="M97 0v207h436v9q-86 25 -161 73t-137 119t-98 173.5t-36 224.5q0 217 114 376t307.5 239t441.5 80t442 -80t308 -239t114 -376q0 -122 -36 -224.5t-98 -173.5t-137.5 -119t-161.5 -73v-9h437v-207h-765v290q205 40 322 169t117 327q0 145 -71 251t-192.5 159t-278.5 53
t-278 -53t-192 -159t-71 -251q0 -198 117 -327t322 -169v-290h-765z" />
    <glyph glyph-name="partialdiff" unicode="&#x2202;" horiz-adv-x="1513" 
d="M684 1521q73 0 140 -8t142 -30.5t138 -59t122 -97t100 -140.5t65.5 -194t24.5 -253q0 -172 -35 -305t-97 -221t-153.5 -145t-197.5 -81t-235 -24q-119 0 -224 28.5t-191 85.5t-136 154t-50 224q0 115 36 207.5t95.5 152.5t141.5 100t169 57t183 17q231 0 378 -94
q-14 100 -47.5 173.5t-75 115.5t-98.5 67t-108 33t-114 8q-103 0 -202 -29t-177 -80l-82 208q95 62 221.5 96t266.5 34zM697 188q193 0 295.5 109t116.5 349q-117 118 -336 118q-80 0 -144.5 -16t-117.5 -50.5t-82.5 -96t-29.5 -145.5q0 -138 80.5 -203t217.5 -65z" />
    <glyph glyph-name="emptyset" unicode="&#x2205;" horiz-adv-x="1810" 
d="M1419 1274q110 -105 172 -246t62 -297q0 -153 -59 -291t-159 -238t-238.5 -159t-291.5 -59q-208 0 -381 104l-77 -104h-209l153 204q-110 103 -171.5 244t-61.5 299q0 153 59 291.5t159 238.5t238 159t291 59q203 0 383 -105l78 105h209zM348 731q0 -114 40.5 -217
t113.5 -182l680 901q-127 76 -277 76q-152 0 -280.5 -77.5t-202.5 -210.5t-74 -290zM905 154q114 0 217 45.5t177.5 123t118.5 184t44 224.5q0 230 -151 397l-680 -901q124 -73 274 -73z" />
    <glyph glyph-name="uni2206" unicode="&#x2206;" horiz-adv-x="1853" 
d="M1117 1462l695 -1462h-1769l695 1462h379zM460 231h931l-459 996h-9z" />
    <glyph glyph-name="product" unicode="&#x220f;" horiz-adv-x="1818" 
d="M1665 -303h-295v1507h-922v-1507h-295v1765h1512v-1765z" />
    <glyph glyph-name="summation" unicode="&#x2211;" horiz-adv-x="1654" 
d="M1545 -47v-256h-1392v211l678 674l-642 673v207h1316v-256h-869l568 -601l-652 -652h993z" />
    <glyph glyph-name="minus" unicode="&#x2212;" horiz-adv-x="1404" 
d="M1243 779v-222h-1082v222h1082z" />
    <glyph glyph-name="uni2219" unicode="&#x2219;" horiz-adv-x="684" 
d="M342 469q-74 0 -127.5 53t-53.5 127t53.5 127t127.5 53t127 -53t53 -127t-53 -127t-127 -53z" />
    <glyph glyph-name="radical" unicode="&#x221a;" horiz-adv-x="1392" 
d="M1320 1435l-575 -1738h-219l-256 707l-146 -68l-52 103l323 149l251 -694h4l508 1541h162z" />
    <glyph glyph-name="infinity" unicode="&#x221e;" horiz-adv-x="1814" 
d="M1277 1009q112 0 199.5 -56.5t131.5 -142t44 -180.5q0 -157 -103.5 -273t-271.5 -116q-210 0 -383 207q-171 -207 -363 -207q-111 0 -197 56t-129.5 144t-43.5 189q0 95 43.5 180.5t130 142t196.5 56.5q221 0 380 -206q171 206 366 206zM535 425q81 0 140 45.5t120 138.5
q-68 113 -125.5 165t-134.5 52q-87 0 -133.5 -55.5t-46.5 -140.5q0 -88 47.5 -146.5t132.5 -58.5zM1273 425q87 0 135.5 58t48.5 147q0 86 -47.5 141t-136.5 55q-81 0 -140 -44.5t-119 -135.5q66 -114 124.5 -167.5t134.5 -53.5z" />
    <glyph glyph-name="integral" unicode="&#x222b;" horiz-adv-x="1019" 
d="M799 1526q78 0 165 -14v-211q-63 9 -113 9q-100 0 -148 -31t-48 -124v-1203q0 -189 -109.5 -267t-325.5 -78q-83 0 -164 13v211q63 -9 112 -9q100 0 148.5 31.5t48.5 124.5v1202q0 189 109 267.5t325 78.5z" />
    <glyph glyph-name="approxequal" unicode="&#x2248;" horiz-adv-x="1404" 
d="M987 894q71 0 132 40t124 110v-234q-116 -133 -256 -133q-105 0 -223 60l-148 74q-113 58 -199 58q-137 0 -256 -176v234q105 160 256 160q41 0 84.5 -11.5t63.5 -20.5t56 -27l148 -74q120 -60 218 -60zM987 463q71 0 132 40t124 110v-234q-116 -133 -256 -133
q-105 0 -223 60l-148 74q-113 58 -199 58q-137 0 -256 -176v234q105 160 256 160q41 0 84.5 -11.5t63.5 -20.5t56 -27l148 -74q120 -60 218 -60z" />
    <glyph glyph-name="notequal" unicode="&#x2260;" horiz-adv-x="1404" 
d="M1243 771h-345l-153 -214h498v-222h-653l-117 -164h-238l117 164h-191v222h346l152 214h-498v222h654l116 164h238l-116 -164h190v-222z" />
    <glyph glyph-name="lessequal" unicode="&#x2264;" horiz-adv-x="1404" 
d="M162 845l1077 353v-231l-709 -215v-9l709 -215v-231l-1077 353v195zM1243 213v-213h-1082v213h1082z" />
    <glyph glyph-name="greaterequal" unicode="&#x2265;" horiz-adv-x="1404" 
d="M1242 845v-195l-1077 -353v231l709 215v9l-709 215v231zM161 213h1082v-213h-1082v213z" />
    <glyph glyph-name="lozenge" unicode="&#x25ca;" horiz-adv-x="1509" 
d="M843 1529l512 -794l-512 -795h-176l-514 795l514 794h176zM756 106l402 629l-402 631l-403 -631z" />
    <glyph glyph-name="i.loclTRK" horiz-adv-x="555" 
d="M128 1276v215h298v-215h-298zM132 0v1103h290v-1103h-290z" />
    <glyph glyph-name="N_T" horiz-adv-x="3217" 
d="M3164 1462v-252h-603v-1210h-295v1210h-603v-1210h-336l-884 1086h-9v-1086h-281v1462h347l872 -1073h9v1073h1783z" />
    <glyph glyph-name="N_T_U" horiz-adv-x="4820" 
d="M4374 1462h295v-887q0 -162 -54 -281.5t-156 -191.5t-236.5 -106.5t-306.5 -34.5t-306.5 34.5t-236 106.5t-155.5 191.5t-54 281.5v635h-603v-1210h-295v1210h-603v-1210h-336l-884 1086h-9v-1086h-281v1462h347l872 -1073h9v1073h2078v-881q0 -192 121.5 -282.5
t335.5 -90.5t336 90.5t122 282.5v881z" />
    <glyph glyph-name="N_T_Y" horiz-adv-x="4644" 
d="M4292 1462h345l-681 -923v-539h-296v535l-498 675h-601v-1210h-295v1210h-603v-1210h-336l-884 1086h-9v-1086h-281v1462h347l872 -1073h9v1073h1951l476 -667z" />
    <glyph glyph-name="T_T" horiz-adv-x="2822" 
d="M2770 1462v-252h-603v-1210h-295v1210h-922v-1210h-294v1210h-603v252h2717z" />
    <glyph glyph-name="T_T_U" horiz-adv-x="4427" 
d="M3980 1462h295v-887q0 -162 -54 -281.5t-156 -191.5t-236.5 -106.5t-306.5 -34.5t-306.5 34.5t-236 106.5t-155.5 191.5t-54 281.5v635h-603v-1210h-295v1210h-922v-1210h-294v1210h-603v252h3012v-881q0 -192 121.5 -282.5t335.5 -90.5t336 90.5t122 282.5v881z" />
    <glyph glyph-name="T_T_Y" horiz-adv-x="4251" 
d="M3898 1462h346l-682 -923v-539h-296v535l-498 675h-601v-1210h-295v1210h-922v-1210h-294v1210h-603v252h2885l476 -667z" />
    <glyph glyph-name="T_U" horiz-adv-x="3211" 
d="M2763 1462h295v-887q0 -162 -54 -281.5t-155.5 -191.5t-236 -106.5t-306.5 -34.5t-306.5 34.5t-236.5 106.5t-156 191.5t-54 281.5v635h-603v-1210h-294v1210h-603v252h1795v-881q0 -192 122 -282.5t336 -90.5t335.5 90.5t121.5 282.5v881z" />
    <glyph glyph-name="T_V" horiz-adv-x="3119" 
d="M2779 1462h332l-682 -1462h-311l-565 1210h-603v-1210h-294v1210h-603v252h1722l497 -1121h9z" />
    <glyph glyph-name="T_W" horiz-adv-x="3751" 
d="M3414 1462h317l-459 -1462h-350l-314 1086h-9l-318 -1086h-350l-378 1210h-603v-1210h-294v1210h-603v252h1742l314 -1098h9l322 1098h331l322 -1098h9z" />
    <glyph glyph-name="T_Y" horiz-adv-x="3035" 
d="M2682 1462h345l-682 -923v-539h-296v535l-498 675h-601v-1210h-294v1210h-603v252h1668l476 -667z" />
    <glyph glyph-name="T_h" horiz-adv-x="2897" 
d="M2289 1130q104 0 189.5 -23.5t150.5 -70.5t101 -124.5t36 -179.5v-732h-290v634q0 137 -74 198.5t-219 61.5q-64 0 -121.5 -17.5t-108 -53.5t-80.5 -101t-30 -151v-571h-290v1210h-603v-1210h-294v1210h-603v252h1500v21h290v-521h9q153 168 437 168z" />
    <glyph glyph-name="T_i" horiz-adv-x="1982" 
d="M1552 1493h299v-215h-298v-68h-603v-1210h-294v1210h-603v252h1499v31zM1556 0v1103h290v-1103h-290z" />
    <glyph glyph-name="U_T" horiz-adv-x="3211" 
d="M3158 1462v-252h-602v-1210h-295v1210h-603v-635q0 -162 -54 -281.5t-155.5 -191.5t-236 -106.5t-306.5 -34.5t-306.5 34.5t-236.5 106.5t-156 191.5t-54 281.5v887h295v-881q0 -192 122 -282.5t336 -90.5t335.5 90.5t121.5 282.5v881h1795z" />
    <glyph glyph-name="U_T_T" horiz-adv-x="4427" 
d="M4375 1462v-252h-603v-1210h-294v1210h-922v-1210h-295v1210h-603v-635q0 -162 -54 -281.5t-155.5 -191.5t-236 -106.5t-306.5 -34.5t-306.5 34.5t-236.5 106.5t-156 191.5t-54 281.5v887h295v-881q0 -192 122 -282.5t336 -90.5t335.5 90.5t121.5 282.5v881h3012z" />
    <glyph glyph-name="U_T_U" horiz-adv-x="4816" 
d="M4368 1462h295v-887q0 -162 -54 -281.5t-155.5 -191.5t-236 -106.5t-306.5 -34.5t-306.5 34.5t-236.5 106.5t-156 191.5t-54 281.5v635h-602v-1210h-295v1210h-603v-635q0 -162 -54 -281.5t-155.5 -191.5t-236 -106.5t-306.5 -34.5t-306.5 34.5t-236.5 106.5t-156 191.5
t-54 281.5v887h295v-881q0 -192 122 -282.5t336 -90.5t335.5 90.5t121.5 282.5v881h2090v-881q0 -192 122 -282.5t336 -90.5t335.5 90.5t121.5 282.5v881z" />
    <glyph glyph-name="U_T_Y" horiz-adv-x="4640" 
d="M4287 1462h345l-682 -923v-539h-295v535l-499 675h-600v-1210h-295v1210h-603v-635q0 -162 -54 -281.5t-155.5 -191.5t-236 -106.5t-306.5 -34.5t-306.5 34.5t-236.5 106.5t-156 191.5t-54 281.5v887h295v-881q0 -192 122 -282.5t336 -90.5t335.5 90.5t121.5 282.5v881
h1963l476 -667z" />
    <glyph glyph-name="V_T" horiz-adv-x="3119" 
d="M3065 1462v-252h-602v-1210h-295v1210h-601l-565 -1210h-311l-682 1462h338l498 -1121h9l498 1121h1713z" />
    <glyph glyph-name="W_T" horiz-adv-x="3751" 
d="M3700 1462v-252h-603v-1210h-295v1210h-603l-380 -1210h-350l-314 1086h-9l-318 -1086h-350l-457 1462h321l314 -1098h10l321 1098h331l322 -1098h9l313 1098h1738z" />
    <glyph glyph-name="Y_T" horiz-adv-x="3035" 
d="M2982 1462v-252h-603v-1210h-295v1210h-600l-497 -671v-539h-296v535l-683 927h355l476 -667l484 667h1659z" />
    <glyph glyph-name="Y_T_T" horiz-adv-x="4251" 
d="M4199 1462v-252h-603v-1210h-295v1210h-922v-1210h-295v1210h-600l-497 -671v-539h-296v535l-683 927h355l476 -667l484 667h2876z" />
    <glyph glyph-name="f_i" horiz-adv-x="1415" 
d="M729 1306q-40 0 -68 -3t-57 -12t-47 -25.5t-29 -44.5t-11 -68v-50h308v-198h-308v-905h-290v905h-194v198h194v77q0 189 113.5 267.5t338.5 78.5q78 0 170 -14v-216q-75 10 -120 10zM988 1276v215h298v-215h-298zM992 0v1103h290v-1103h-290z" />
    <glyph glyph-name="f_l" horiz-adv-x="1445" 
d="M729 1306q-40 0 -68 -3t-57 -12t-47 -25.5t-29 -44.5t-11 -68v-50h308v-198h-308v-905h-290v905h-194v198h194v77q0 189 113.5 267.5t338.5 78.5q78 0 170 -14v-216q-75 10 -120 10zM1023 0v1483h290v-1483h-290z" />
    <glyph glyph-name="f_t" horiz-adv-x="1665" 
d="M1585 905h-307v-564q0 -64 33 -90.5t103 -26.5q100 0 168 13v-237q-92 -18 -210 -18q-214 0 -299 69.5t-85 240.5v613h-471v-905h-290v905h-194v198h194v77q0 189 113.5 267.5t338.5 78.5q78 0 170 -14v-216q-75 10 -120 10q-40 0 -68 -3t-57 -12t-47 -25.5t-29 -44.5
t-11 -68v-50h471v304h290v-304h307v-198z" />
    <glyph glyph-name="caroncomb.alt" horiz-adv-x="0" 
d="M-153 1483v-183q0 -157 -57 -229t-212 -73v108q77 1 101 32t24 105h-125v240h269z" />
    <glyph glyph-name="uni0326.case" horiz-adv-x="0" 
d="M-153 -130v-162q0 -76 -10 -122t-41 -82.5t-90.5 -52t-155.5 -16.5v91q81 1 108.5 32t27.5 97h-137v215h298z" />
    <glyph glyph-name="caron.alt" horiz-adv-x="620" 
d="M467 1483v-201q0 -207 -72 -294.5t-240 -89.5v109q82 1 115.5 49.5t33.5 167.5h-151v259h314z" />
    <glyph glyph-name="acute.case" horiz-adv-x="899" 
d="M746 1896l-340 -314h-253l183 314h410z" />
    <glyph glyph-name="breve.case" horiz-adv-x="1155" 
d="M1002 1895q-1 -82 -37 -146.5t-95.5 -103t-133.5 -58t-158 -19.5q-66 0 -127 12t-115 38t-94 63.5t-64 92.5t-25 121h246q15 -123 179 -123q163 0 178 123h246z" />
    <glyph glyph-name="caron.case" horiz-adv-x="1259" 
d="M779 1896h328l-292 -314h-370l-292 314h329l144 -171h9z" />
    <glyph glyph-name="cedilla.case" horiz-adv-x="913" 
d="M153 -448v144h9q128 -39 230 -39q56 0 86.5 15t30.5 55q0 69 -117 69q-31 0 -79 -5.5t-66 -11.5h-9v78l145 215h166l-110 -163q38 6 75 6q247 0 247 -188q0 -109 -91 -156t-264 -47q-149 0 -253 28z" />
    <glyph glyph-name="circumflex.case" horiz-adv-x="1259" 
d="M779 1582l-144 171h-9l-144 -171h-329l292 314h370l292 -314h-328z" />
    <glyph glyph-name="dieresis.case" horiz-adv-x="1118" 
d="M153 1595v215h290v-215h-290zM676 1595v215h289v-215h-289z" />
    <glyph glyph-name="dotaccent.case" horiz-adv-x="604" 
d="M153 1595v215h298v-215h-298z" />
    <glyph glyph-name="grave.case" horiz-adv-x="899" 
d="M153 1896h410l183 -314h-253z" />
    <glyph glyph-name="hungarumlaut.case" horiz-adv-x="1302" 
d="M660 1896l-258 -314h-249l148 314h359zM1149 1896l-258 -314h-249l148 314h359z" />
    <glyph glyph-name="macron.case" horiz-adv-x="1118" 
d="M966 1601h-813v198h813v-198z" />
    <glyph glyph-name="ogonek.case" horiz-adv-x="821" 
d="M549 -303q57 0 119 17v-167q-77 -17 -172 -17q-343 0 -343 204q0 34 21.5 75.5t61 84t107 78t148.5 51.5l177 -23q-230 -90 -230 -228q0 -38 32.5 -56.5t78.5 -18.5z" />
    <glyph glyph-name="ring.case" horiz-adv-x="923" 
d="M462 1529q-132 0 -220.5 69t-88.5 183q0 113 88.5 182t220.5 69t220.5 -69t88.5 -182q0 -114 -88.5 -183t-220.5 -69zM462 1681q49 0 83 27.5t34 72.5t-34 72.5t-83 27.5t-83 -27.5t-34 -72.5t34 -72.5t83 -27.5z" />
    <glyph glyph-name="tilde.case" horiz-adv-x="1224" 
d="M816 1554q-59 0 -135.5 30t-143.5 59.5t-103 29.5q-34 0 -48 -21t-13 -77h-220q0 86 22.5 149.5t61 97.5t81 50t90.5 16q59 0 135.5 -30t143.5 -59.5t103 -29.5q34 0 48 21.5t13 75.5h220q0 -86 -22.5 -149.5t-61 -97.5t-81 -49.5t-90.5 -15.5z" />
    </font>
</defs>
</svg>
